<?xml version="1.0" encoding="UTF-8"?>
<svg width="26px" height="26px" viewBox="0 0 26 26" version="1.1" xmlns="http://www.w3.org/2000/svg" xmlns:xlink="http://www.w3.org/1999/xlink">
    <!-- Generator: sketchtool 52.2 (67145) - http://www.bohemiancoding.com/sketch -->
    <title>D3A47D78-737A-4729-8EFD-108375DBB0C1</title>
    <desc>Created with sketchtool.</desc>
    <defs>
        <linearGradient x1="50%" y1="0%" x2="50%" y2="100%" id="linearGradient-1">
            <stop stop-color="#F5515F" offset="0%"></stop>
            <stop stop-color="#9F041B" offset="100%"></stop>
        </linearGradient>
    </defs>
    <g id="Page-1" stroke="none" stroke-width="1" fill="none" fill-rule="evenodd">
        <g id="ui-kit" transform="translate(-227.000000, -271.000000)">
            <g id="buy" transform="translate(227.000000, 271.000000)">
                <path d="M25.6104056,16.1460745 C23.875126,23.1098438 16.8198653,27.348219 9.85404655,25.6103317 C2.88822784,23.8724445 -1.34817869,16.8206629 0.389830914,9.8562436 C2.12784051,2.89182433 9.17959118,-1.34850091 16.1438499,0.389646329 C23.1081085,2.12779357 27.3484151,9.17996522 25.6104056,16.1460745 Z" id="Path" fill="url(#linearGradient-1)"></path>
                <path d="M12.6347826,16.373386 C12.5573119,16.373386 12.4733865,16.3715415 12.383004,16.3678524 C12.2926214,16.3641634 12.2022402,16.3586298 12.1118577,16.3512516 C12.0214752,16.3438735 11.9320163,16.3346509 11.8434783,16.3235837 C11.7549403,16.3125164 11.6737817,16.2977603 11.6,16.2793149 L11.6,12.5607378 C11.6737817,12.5422924 11.7549403,12.5275363 11.8434783,12.516469 C11.9320163,12.5054018 12.0214752,12.4961792 12.1118577,12.4888011 C12.2022402,12.4814229 12.2916992,12.4758893 12.3802372,12.4722003 C12.4687751,12.4685112 12.5517783,12.4666667 12.629249,12.4666667 C12.850594,12.4666667 13.0581018,12.4832673 13.2517787,12.516469 C13.4454555,12.5496708 13.6133063,12.6059285 13.755336,12.6852437 C13.8973657,12.764559 14.0089588,12.8687741 14.0901186,12.997892 C14.1712784,13.1270099 14.2118577,13.2856381 14.2118577,13.4737813 C14.2118577,13.684059 14.1620558,13.8565211 14.0624506,13.9911726 C13.9628454,14.1258241 13.8300404,14.2263501 13.6640316,14.2927536 C13.8890657,14.3591571 14.0679835,14.4642944 14.2007905,14.6081686 C14.3335975,14.7520429 14.4,14.9549394 14.4,15.2168643 C14.4,15.6005289 14.2588947,15.8891953 13.9766798,16.0828722 C13.694465,16.2765491 13.2471704,16.373386 12.6347826,16.373386 Z M12.1312253,14.5528327 L12.1312253,15.9030303 C12.1718052,15.9067194 12.2197626,15.9104084 12.2750988,15.9140975 C12.3230569,15.9177866 12.3793146,15.9205534 12.4438735,15.9223979 C12.5084325,15.9242424 12.5831353,15.9251647 12.6679842,15.9251647 C12.8266148,15.9251647 12.9769426,15.9150199 13.1189723,15.8947299 C13.261002,15.87444 13.3855067,15.8384719 13.4924901,15.7868248 C13.5994735,15.7351776 13.6852434,15.6632416 13.7498024,15.5710145 C13.8143613,15.4787874 13.8466403,15.362583 13.8466403,15.2223979 C13.8466403,15.0969691 13.8226616,14.9909095 13.7747036,14.9042161 C13.7267455,14.8175226 13.6575762,14.7483534 13.5671937,14.6967062 C13.4768111,14.645059 13.3689071,14.6081688 13.2434783,14.5860343 C13.1180494,14.5638998 12.9778664,14.5528327 12.8229249,14.5528327 L12.1312253,14.5528327 Z M12.1312253,14.1212121 L12.6956522,14.1212121 C12.8284592,14.1212121 12.9538861,14.1119896 13.0719368,14.0935441 C13.1899874,14.0750987 13.2923579,14.0418975 13.3790514,13.9939394 C13.4657448,13.9459813 13.5339918,13.8832678 13.5837945,13.8057971 C13.6335971,13.7283264 13.658498,13.6305671 13.658498,13.5125165 C13.658498,13.401844 13.6326748,13.308696 13.5810277,13.2330698 C13.5293805,13.1574436 13.4583667,13.0965747 13.3679842,13.0504611 C13.2776017,13.0043476 13.1715421,12.9702241 13.0498024,12.9480896 C12.9280626,12.9259551 12.7989467,12.914888 12.6624506,12.914888 C12.5259545,12.914888 12.4189727,12.9167325 12.341502,12.9204216 C12.2640312,12.9241107 12.1939397,12.9296442 12.1312253,12.9370224 L12.1312253,14.1212121 Z" id="B" fill="#FFFFFF"></path>
                <path d="M19.9883546,18.419191 L18.800335,8.67223359 C18.7710715,8.43266602 18.5430543,8.25090484 18.2713405,8.25090484 L16.3079037,8.25090484 L16.3079037,7.93508453 C16.3080361,6.31674042 14.8240709,5 13.0000662,5 C11.1761939,5 9.69222871,6.31674042 9.69222871,7.93508453 L9.69222871,8.25090484 L7.72865951,8.25090484 C7.4569457,8.25090484 7.22892855,8.43254853 7.19966503,8.67223359 L6.01164541,18.419191 C5.95020526,18.9233521 6.13386367,19.4288056 6.51561363,19.806192 C6.89736355,20.1835785 7.44410151,20.4 8.01560095,20.4 L17.9842666,20.4 C18.5557661,20.4 19.102504,20.1835785 19.4843864,19.806192 C19.8661364,19.4288056 20.0497947,18.9232346 19.9883546,18.419191 Z M10.7563087,7.93508453 C10.7563087,6.83735048 11.7629209,5.94417114 13.0000662,5.94417114 C14.2373439,5.94417114 15.2438237,6.83735048 15.2438237,7.93508453 L15.2438237,8.25090484 L10.7563087,8.25090484 L10.7563087,7.93508453 Z M18.6924175,19.1754913 C18.5095535,19.3561951 18.2580991,19.4558289 17.9843991,19.4558289 L8.01560095,19.4558289 C7.74190092,19.4558289 7.49044647,19.3561951 7.30745012,19.1754913 C7.12471865,18.9946701 7.04010601,18.7621521 7.06963437,18.5207046 L8.2062773,9.19519347 L9.69222871,9.19519347 L9.69222871,10.398201 C9.69222871,10.6589172 9.93044174,10.8702866 10.2242687,10.8702866 C10.5180957,10.8702866 10.7563087,10.6589172 10.7563087,10.398201 L10.7563087,9.19519347 L15.2438237,9.19519347 L15.2438237,10.398201 C15.2438237,10.6589172 15.4820367,10.8702866 15.7758637,10.8702866 C16.0698231,10.8702866 16.3080361,10.6589172 16.3080361,10.398201 L16.3080361,9.19519347 L17.7937227,9.19519347 L18.9303657,18.5207046 C18.9597616,18.7621521 18.8752814,18.9946701 18.6924175,19.1754913 Z" id="Shape" fill="#FFFFFF" fill-rule="nonzero"></path>
            </g>
        </g>
    </g>
</svg>