<?xml version="1.0" encoding="UTF-8"?>
<svg width="30px" height="28px" viewBox="0 0 30 28" version="1.1" xmlns="http://www.w3.org/2000/svg" xmlns:xlink="http://www.w3.org/1999/xlink">
    <!-- Generator: sketchtool 52.2 (67145) - http://www.bohemiancoding.com/sketch -->
    <title>FC55F314-C246-40F6-9419-2F6F1D64110A</title>
    <desc>Created with sketchtool.</desc>
    <defs>
        <linearGradient x1="90.6001632%" y1="0%" x2="19.2482416%" y2="100%" id="linearGradient-1">
            <stop stop-color="#7C1ABC" offset="0%"></stop>
            <stop stop-color="#4A998C" offset="100%"></stop>
        </linearGradient>
    </defs>
    <g id="Page-1" stroke="none" stroke-width="1" fill="none" fill-rule="evenodd">
        <g id="ui-kit" transform="translate(-332.000000, -79.000000)" fill-rule="nonzero">
            <g id="notif" transform="translate(332.000000, 79.000000)">
                <rect id="Rectangle-Copy-4" fill="url(#linearGradient-1)" x="0" y="0" width="30" height="28" rx="3"></rect>
                <path d="M21.7419065,17.5006183 L20.0442334,15.0079436 L20.0442334,11.8932479 C20.0442334,9.83859788 18.8161908,8.00545188 16.9155051,7.22304033 C16.5955111,7.09137066 16.3888265,6.78750751 16.3888265,6.44889089 C16.3888265,5.64195519 15.7505433,5.04773681 15.0203275,5.03383543 C14.2335881,5.01678657 13.5981902,5.67461031 13.5981902,6.44902202 C13.5981902,6.78750751 13.3915056,7.09137066 13.0715115,7.22317146 C11.1708258,8.00545188 9.94278329,9.83859788 9.94278329,11.8932479 L9.94278329,15.0079436 L8.24511015,17.5007494 C7.61784324,18.4217813 8.26045412,19.6962492 9.4239733,19.6962492 L12.0291704,19.6962492 C12.2675922,21.1283536 13.5061263,22.2230216 14.9934428,22.2230216 C16.4807592,22.2230216 17.7192933,21.1283536 17.9578462,19.6962492 L20.5629122,19.6962492 C21.7294477,19.6962492 22.3674685,18.4192896 21.7419065,17.5006183 Z M10.9498464,11.8932479 C10.9498464,10.2484263 11.9331722,8.78091279 13.4548486,8.15456387 C14.1537208,7.86683153 14.6053845,7.19733589 14.6053845,6.44902202 C14.6053845,6.33872902 14.6512852,6.23040319 14.7312837,6.15184728 C14.8044627,6.08011091 14.8975757,6.04089852 14.9943608,6.04089852 L15.0011803,6.04089852 C15.2108813,6.04483289 15.381501,6.21886243 15.381501,6.42856339 L15.381501,6.44889089 C15.381501,7.19733589 15.8331647,7.8667004 16.532168,8.1544327 C18.0538444,8.78078162 19.0370391,10.2482951 19.0370391,11.8931167 L19.0370391,14.6594912 L10.9498464,14.6594912 L10.9498464,11.8932479 Z M14.9934428,21.2158273 C14.0629684,21.2158273 13.2791142,20.5690198 13.0573479,19.6962492 L16.9295376,19.6962492 C16.7079024,20.5690198 15.9239171,21.2158273 14.9934428,21.2158273 Z M20.8952338,18.5348284 C20.821268,18.6313512 20.6970736,18.689055 20.5629122,18.689055 L9.4239733,18.689055 C9.28981191,18.689055 9.16561751,18.6313512 9.09178282,18.5348284 C8.9864733,18.3973883 8.98083409,18.2095886 9.07748801,18.0676896 L10.7126049,15.6668165 L19.2744117,15.6668165 L20.9093975,18.0675584 C21.0060514,18.2095886 21.0004122,18.3972572 20.8952338,18.5348284 Z" id="Shape" fill="#FFFFFF"></path>
            </g>
        </g>
    </g>
</svg>