<?xml version="1.0" encoding="UTF-8"?>
<svg width="26px" height="26px" viewBox="0 0 26 26" version="1.1" xmlns="http://www.w3.org/2000/svg" xmlns:xlink="http://www.w3.org/1999/xlink">
    <!-- Generator: sketchtool 52.2 (67145) - http://www.bohemiancoding.com/sketch -->
    <title>53D855C0-8D3B-4757-9610-A315CE0F8481</title>
    <desc>Created with sketchtool.</desc>
    <g id="Page-1" stroke="none" stroke-width="1" fill="none" fill-rule="evenodd">
        <g id="ui-kit" transform="translate(-101.000000, -271.000000)">
            <g id="BTC_Logo" transform="translate(101.000000, 271.000000)">
                <path d="M25.6104056,16.1460745 C23.875126,23.1098438 16.8198653,27.348219 9.85404655,25.6103317 C2.88822784,23.8724445 -1.34817869,16.8206629 0.389830914,9.8562436 C2.12784051,2.89182433 9.17959118,-1.34850091 16.1438499,0.389646329 C23.1081085,2.12779357 27.3484151,9.17996522 25.6104056,16.1460745 Z" id="Path" fill="#3970E2"></path>
                <path d="M17.9687213,11.4317355 C18.2180435,9.75059022 16.947353,8.84678674 15.2096222,8.24391419 L15.7739833,5.96671852 L14.3974437,5.62131752 L13.8476305,7.83863021 C13.4861885,7.74792139 13.1147134,7.66176064 12.7454958,7.57736859 L13.2973156,5.345401 L11.9221555,5 L11.3594247,7.27631132 L8.58377095,6.58374063 L8.21756324,8.06451791 C8.21756324,8.06451791 9.23868076,8.30025978 9.21710962,8.31491468 C9.77444765,8.45514698 9.87553101,8.82657307 9.85847476,9.12118724 L8.31413171,15.3596295 C8.24590671,15.5301823 8.07308678,15.7858852 7.68355214,15.6881016 C7.69734764,15.7083152 6.68325328,15.4354308 6.68325328,15.4354308 L6,17.0246038 L8.77164052,17.7295554 L8.20201195,20.0332815 L9.57654499,20.3786825 L10.1409062,18.0997181 C10.517147,18.2023025 10.8808464,18.297054 11.2372719,18.3862468 L10.6751681,20.654599 L12.0514569,21 L12.6210855,18.7006956 C14.9679502,19.147923 16.7327703,18.967516 17.4745917,16.8309316 C18.0730654,15.1096118 17.445245,14.1166155 16.2104227,13.4687675 C17.1096382,13.2590507 17.7868716,12.6635056 17.9675926,11.4326198 M14.8233483,15.8735619 C14.396942,17.5948818 11.5205812,16.6646743 10.5872532,16.4309538 L11.3429955,13.3793221 C12.2758219,13.6138006 15.2670616,14.0782095 14.8238499,15.8733093 M15.2502562,11.4073527 C14.8622265,12.9739117 12.467203,12.1779987 11.6898895,11.9826842 L12.3741461,9.21417009 C13.1517104,9.4097373 15.6538371,9.77383594 15.2492529,11.4072264" id="Shape" fill="#FFFFFF" fill-rule="nonzero"></path>
            </g>
        </g>
    </g>
</svg>