<?xml version="1.0" encoding="UTF-8"?>
<svg width="26px" height="26px" viewBox="0 0 26 26" version="1.1" xmlns="http://www.w3.org/2000/svg" xmlns:xlink="http://www.w3.org/1999/xlink">
    <!-- Generator: sketchtool 52.2 (67145) - http://www.bohemiancoding.com/sketch -->
    <title>B3C4577B-9844-4C44-A135-0B902F8F0521</title>
    <desc>Created with sketchtool.</desc>
    <g id="Page-1" stroke="none" stroke-width="1" fill="none" fill-rule="evenodd">
        <g id="ui-kit" transform="translate(-185.000000, -271.000000)">
            <g id="BTC_Logo" transform="translate(185.000000, 271.000000)">
                <g id="sell-">
                    <path d="M25.6104056,16.1460745 C23.875126,23.1098438 16.8198653,27.348219 9.85404655,25.6103317 C2.88822784,23.8724445 -1.34817869,16.8206629 0.389830914,9.8562436 C2.12784051,2.89182433 9.17959118,-1.34850091 16.1438499,0.389646329 C23.1081085,2.12779357 27.3484151,9.17996522 25.6104056,16.1460745 Z" id="Path" fill="#417505"></path>
                    <path d="M19.9883546,17.419191 L18.800335,7.67223359 C18.7710715,7.43266602 18.5430543,7.25090484 18.2713405,7.25090484 L16.3079037,7.25090484 L16.3079037,6.93508453 C16.3080361,5.31674042 14.8240709,4 13.0000662,4 C11.1761939,4 9.69222871,5.31674042 9.69222871,6.93508453 L9.69222871,7.25090484 L7.72865951,7.25090484 C7.4569457,7.25090484 7.22892855,7.43254853 7.19966503,7.67223359 L6.01164541,17.419191 C5.95020526,17.9233521 6.13386367,18.4288056 6.51561363,18.806192 C6.89736355,19.1835785 7.44410151,19.4 8.01560095,19.4 L17.9842666,19.4 C18.5557661,19.4 19.102504,19.1835785 19.4843864,18.806192 C19.8661364,18.4288056 20.0497947,17.9232346 19.9883546,17.419191 Z M10.7563087,6.93508453 C10.7563087,5.83735048 11.7629209,4.94417114 13.0000662,4.94417114 C14.2373439,4.94417114 15.2438237,5.83735048 15.2438237,6.93508453 L15.2438237,7.25090484 L10.7563087,7.25090484 L10.7563087,6.93508453 Z M18.6924175,18.1754913 C18.5095535,18.3561951 18.2580991,18.4558289 17.9843991,18.4558289 L8.01560095,18.4558289 C7.74190092,18.4558289 7.49044647,18.3561951 7.30745012,18.1754913 C7.12471865,17.9946701 7.04010601,17.7621521 7.06963437,17.5207046 L8.2062773,8.19519347 L9.69222871,8.19519347 L9.69222871,9.39820098 C9.69222871,9.65891724 9.93044174,9.87028657 10.2242687,9.87028657 C10.5180957,9.87028657 10.7563087,9.65891724 10.7563087,9.39820098 L10.7563087,8.19519347 L15.2438237,8.19519347 L15.2438237,9.39820098 C15.2438237,9.65891724 15.4820367,9.87028657 15.7758637,9.87028657 C16.0698231,9.87028657 16.3080361,9.65891724 16.3080361,9.39820098 L16.3080361,8.19519347 L17.7937227,8.19519347 L18.9303657,17.5207046 C18.9597616,17.7621521 18.8752814,17.9946701 18.6924175,18.1754913 Z" id="Shape" fill="#FFFFFF" fill-rule="nonzero"></path>
                    <path d="M12.8803419,15.2957265 C13.4866127,15.2957265 13.7897436,15.0883212 13.7897436,14.6735043 C13.7897436,14.5458683 13.7628208,14.4371799 13.7089744,14.3474359 C13.6551279,14.2576919 13.5823366,14.1799149 13.4905983,14.1141026 C13.3988599,14.0482903 13.2941601,13.9914532 13.1764957,13.9435897 C13.0588313,13.8957263 12.9341887,13.8478635 12.8025641,13.8 C12.6509964,13.7481479 12.5074081,13.6893166 12.3717949,13.6235043 C12.2361817,13.557692 12.118519,13.479915 12.0188034,13.3901709 C11.9190878,13.3004269 11.8403137,13.1937328 11.7824786,13.0700855 C11.7246436,12.9464381 11.6957265,12.796867 11.6957265,12.6213675 C11.6957265,12.2584027 11.819372,11.9752147 12.0666667,11.7717949 C12.3139614,11.5683751 12.6549836,11.4666667 13.0897436,11.4666667 C13.3410269,11.4666667 13.5693722,11.4935895 13.7747863,11.5474359 C13.9802005,11.6012823 14.1307688,11.6601136 14.2264957,11.7239316 L14.0410256,12.1965812 C13.9572645,12.1447291 13.8326219,12.0938749 13.667094,12.0440171 C13.5015661,11.9941593 13.3091179,11.9692308 13.0897436,11.9692308 C12.9780621,11.9692308 12.8743595,11.9811965 12.7786325,12.0051282 C12.6829055,12.0290599 12.5991457,12.064957 12.5273504,12.1128205 C12.4555552,12.160684 12.3987182,12.2215096 12.3568376,12.2952991 C12.3149571,12.3690887 12.2940171,12.45584 12.2940171,12.5555556 C12.2940171,12.667237 12.3159542,12.7609683 12.3598291,12.8367521 C12.4037039,12.912536 12.4655267,12.9793444 12.5452991,13.0371795 C12.6250716,13.0950145 12.7178057,13.147863 12.8235043,13.1957265 C12.9292028,13.24359 13.0458683,13.2914528 13.1735043,13.3393162 C13.3529924,13.4111115 13.5175206,13.4829056 13.667094,13.5547009 C13.8166674,13.6264961 13.9462957,13.7122502 14.0559829,13.8119658 C14.1656701,13.9116814 14.2504271,14.0303412 14.3102564,14.1679487 C14.3700858,14.3055562 14.4,14.4720788 14.4,14.6675214 C14.4,15.0304861 14.2673802,15.3096856 14.0021368,15.5051282 C13.7368933,15.7005708 13.3629654,15.7982906 12.8803419,15.7982906 C12.7168083,15.7982906 12.56624,15.787322 12.4286325,15.7653846 C12.291025,15.7434472 12.1683766,15.7175215 12.0606838,15.6876068 C11.9529909,15.6576922 11.8602568,15.6257836 11.7824786,15.5918803 C11.7047005,15.557977 11.6438749,15.5290599 11.6,15.5051282 L11.7735043,15.0264957 C11.8652426,15.0783478 12.0048424,15.136182 12.1923077,15.2 C12.379773,15.263818 12.6091155,15.2957265 12.8803419,15.2957265 Z" id="S" fill="#FFFFFF"></path>
                </g>
            </g>
        </g>
    </g>
</svg>