<?xml version="1.0" encoding="UTF-8"?>
<svg width="26px" height="26px" viewBox="0 0 26 26" version="1.1" xmlns="http://www.w3.org/2000/svg" xmlns:xlink="http://www.w3.org/1999/xlink">
    <!-- Generator: sketchtool 52.2 (67145) - http://www.bohemiancoding.com/sketch -->
    <title>ED827226-F58B-4422-B332-03F88545CADB</title>
    <desc>Created with sketchtool.</desc>
    <defs>
        <linearGradient x1="60.6551069%" y1="4.65363078%" x2="22.582215%" y2="100%" id="linearGradient-1">
            <stop stop-color="#2BC418" offset="0%"></stop>
            <stop stop-color="#429321" offset="100%"></stop>
        </linearGradient>
    </defs>
    <g id="Page-1" stroke="none" stroke-width="1" fill="none" fill-rule="evenodd">
        <g id="ui-kit" transform="translate(-143.000000, -271.000000)" fill-rule="nonzero">
            <g id="us" transform="translate(143.000000, 271.000000)">
                <circle id="Oval" fill="url(#linearGradient-1)" cx="13" cy="13" r="13"></circle>
                <path d="M15.089284,13.3902023 C16.2377588,12.6911206 16.9867549,11.4427938 16.9867549,9.99471595 C16.9867782,7.79761868 15.1891362,6 12.9920623,6 C10.7949883,6 8.9973463,7.79761868 8.9973463,9.99471595 C8.9973463,11.4427938 9.74634241,12.691144 10.8948171,13.3902023 C8.89747082,14.1392218 7.39945525,15.8869027 7,17.9841245 L7.99868482,17.9841245 C8.49801556,15.6871751 10.545323,13.9894086 12.9920623,13.9894086 C15.4388016,13.9894086 17.4861089,15.6871518 17.9854397,17.9841245 L18.9841245,17.9841245 C18.5846693,15.836965 17.0866537,14.089284 15.089284,13.3902023 Z M9.99603113,9.99471595 C9.99603113,8.34691051 11.3442568,6.99868482 12.9920623,6.99868482 C14.6398677,6.99868482 15.9880934,8.34691051 15.9880934,9.99471595 C15.9880934,11.6425214 14.6398677,12.9907471 12.9920623,12.9907471 C11.3442568,12.9907471 9.99603113,11.6425214 9.99603113,9.99471595 Z" id="Shape" fill="#FFFFFF"></path>
            </g>
        </g>
    </g>
</svg>