<?xml version="1.0" encoding="UTF-8"?>
<svg width="30px" height="28px" viewBox="0 0 30 28" version="1.1" xmlns="http://www.w3.org/2000/svg" xmlns:xlink="http://www.w3.org/1999/xlink">
    <!-- Generator: sketchtool 52.2 (67145) - http://www.bohemiancoding.com/sketch -->
    <title>CE4F9662-B356-4828-B229-C2B8537C5E31</title>
    <desc>Created with sketchtool.</desc>
    <g id="Page-1" stroke="none" stroke-width="1" fill="none" fill-rule="evenodd">
        <g id="home_dashboard" transform="translate(-1203.000000, -30.000000)" fill-rule="nonzero">
            <g id="Group" transform="translate(1203.000000, 30.000000)">
                <g id="user-ic">
                    <rect id="Rectangle-Copy" fill="#313131" x="0" y="0" width="30" height="28" rx="3"></rect>
                    <g id="round-account-button-with-user-inside" transform="translate(8.000000, 6.000000)" fill="#FFFFFF">
                        <path d="M7.5,0 C3.375,0 0,3.375 0,7.5 C0,11.625 3.375,15 7.5,15 C11.625,15 15,11.625 15,7.5 C15,3.375 11.625,0 7.5,0 Z M7.5,2.25 C8.775,2.25 9.75,3.225 9.75,4.5 C9.75,5.775 8.775,6.75 7.5,6.75 C6.225,6.75 5.25,5.775 5.25,4.5 C5.25,3.225 6.225,2.25 7.5,2.25 Z M7.5,12.9 C5.625,12.9 3.975,11.9250294 3,10.5 C3,9 6,8.175 7.5,8.175 C9,8.175 12,9 12,10.5 C11.025,11.925 9.375,12.9 7.5,12.9 Z" id="Shape"></path>
                    </g>
                </g>
            </g>
        </g>
    </g>
</svg>