<?xml version="1.0" encoding="UTF-8"?>
<svg width="30px" height="26px" viewBox="0 0 30 26" version="1.1" xmlns="http://www.w3.org/2000/svg" xmlns:xlink="http://www.w3.org/1999/xlink">
    <!-- Generator: sketchtool 52.2 (67145) - http://www.bohemiancoding.com/sketch -->
    <title>DC066851-133A-4F35-A08D-FE805807C74E</title>
    <desc>Created with sketchtool.</desc>
    <g id="Page-1" stroke="none" stroke-width="1" fill="none" fill-rule="evenodd">
        <g id="profile" transform="translate(-1015.000000, -166.000000)" fill="#FFFFFF">
            <g id="authentication" transform="translate(1015.000000, 166.000000)">
                <path d="M26.2244979,14.0816327 L22.5727884,14.0816327 C22.5700952,14.0816327 22.5675191,14.0816327 22.5648844,14.0816327 C21.2475501,14.0816327 20.0983661,14.8566362 19.6358353,16.0578392 C19.5743012,16.2177151 19.4990668,16.4189775 19.4205536,16.6536765 L11.7539017,16.6536765 C11.4373316,16.6536765 11.1342276,16.7816357 10.9137351,17.0083848 L8.9022533,19.0770095 C8.45921911,19.5326705 8.46144394,20.2579869 8.9072299,20.7109004 L10.9564167,22.7926192 C11.1765579,23.0162701 11.4774957,23.1422418 11.7915482,23.1422418 L15.5971808,23.1422418 C16.2439042,23.1422418 16.7681447,22.6188309 16.7681447,21.973131 C16.7681447,21.327431 16.2439042,20.8040201 15.5971808,20.8040201 L12.2825333,20.8040201 L11.3792518,19.8864434 L12.2490438,18.9918983 L20.2989522,18.9918983 C20.8384153,18.9918983 21.3080303,18.6239791 21.4362509,18.100802 C21.5309233,17.7147031 21.6497762,17.3433935 21.8217322,16.8968516 C21.9350815,16.6024695 22.2196843,16.4198544 22.5676362,16.4198544 C22.5684559,16.4198544 22.569217,16.4198544 22.5699781,16.4198544 L26.2216876,16.4198544 C26.5528362,16.4206728 26.8378488,16.5983191 26.9655424,16.8834653 C27.2799462,17.5856333 27.6552402,18.672731 27.6580505,19.8639965 C27.6609193,21.0640304 27.2859181,22.1759132 26.9708118,22.89743 C26.8437622,23.1883632 26.5563491,23.376064 26.2354464,23.376064 C26.2348024,23.376064 26.2341584,23.376064 26.2335143,23.376064 L22.5376595,23.376064 C22.2137124,23.3753041 21.9102571,23.1672023 21.782622,22.8582063 C21.6456778,22.5268219 21.5270006,22.1482638 21.4197988,21.7010204 C21.2692129,21.073091 20.6371851,20.6857061 20.0084361,20.8361706 C19.3795113,20.9864599 18.9916881,21.6173705 19.1422155,22.2453 C19.278223,22.8123772 19.4336684,23.3045729 19.6176854,23.7498287 C20.1094317,24.940159 21.2534634,25.7113045 22.5349663,25.7142857 L26.2307626,25.7142857 C26.2332801,25.7142857 26.2357392,25.7142857 26.2382567,25.7142857 C27.4882607,25.7142857 28.6178896,24.9760507 29.1175399,23.8319588 C29.5221664,22.90538 30.0037254,21.4638078 29.9999783,19.8584432 C29.9962312,18.2572875 29.5104568,16.8379869 29.1036054,15.929237 C28.6024329,14.8098134 27.4733309,14.0845554 26.2244979,14.0816327 Z" id="Path"></path>
                <circle id="Oval" cx="25.1020408" cy="20.2040816" r="1.2244898"></circle>
                <path d="M25.3125,0 L4.6875,0 C2.1028125,0 0,2.07921499 0,4.63489744 L0,18.0181638 C0,20.5738462 2.1028125,22.6530612 4.6875,22.6530612 L5.09765625,22.6530612 C5.74488281,22.6530612 6.26953125,22.1343003 6.26953125,21.4943369 C6.26953125,20.8543734 5.74488281,20.3356125 5.09765625,20.3356125 L4.6875,20.3356125 C3.39515625,20.3356125 2.34375,19.296005 2.34375,18.0181638 L2.34375,4.88043113 L12.524707,11.1401498 C13.2882422,11.609607 14.1439453,11.8442487 15,11.8442487 C15.8558203,11.8442487 16.7119922,11.6094911 17.475293,11.1402077 L27.65625,4.88043113 L27.65625,11.0658176 C27.65625,11.7057811 28.1808984,12.224542 28.828125,12.224542 C29.4753516,12.224542 30,11.7057811 30,11.0658176 L30,4.63489744 C30,2.07921499 27.8971875,0 25.3125,0 Z M16.2376758,9.17211441 C15.4742578,9.64157159 14.5258008,9.64157159 13.7623828,9.17211441 L3.32220703,2.75301321 C3.70699219,2.47932251 4.17837891,2.31744872 4.6875,2.31744872 L25.3125,2.31744872 C25.8216797,2.31744872 26.2930078,2.47932251 26.6778516,2.75307114 L16.2376758,9.17211441 Z" id="Shape" fill-rule="nonzero"></path>
            </g>
        </g>
    </g>
</svg>