<?xml version="1.0" encoding="UTF-8"?>
<svg width="82px" height="82px" viewBox="0 0 82 82" version="1.1" xmlns="http://www.w3.org/2000/svg" xmlns:xlink="http://www.w3.org/1999/xlink">
    <!-- Generator: sketchtool 52.2 (67145) - http://www.bohemiancoding.com/sketch -->
    <title>E08EDC0A-815C-4182-9A44-6CD1D32ABF04</title>
    <desc>Created with sketchtool.</desc>
    <g id="Page-1" stroke="none" stroke-width="1" fill="none" fill-rule="evenodd">
        <g id="profile" transform="translate(-286.000000, -189.000000)" fill-rule="nonzero">
            <g id="avatar" transform="translate(286.000000, 189.000000)">
                <circle id="Oval" fill="#FFFFFF" cx="41" cy="41" r="41"></circle>
                <g id="ac_ic" transform="translate(21.000000, 21.000000)" fill="#4A998C">
                    <path d="M34.1421875,25.8578125 C31.9638281,23.6795313 29.3710156,22.0669531 26.5421094,21.0907812 C29.5719531,19.0039844 31.5625,15.5115625 31.5625,11.5625 C31.5625,5.18695313 26.3755469,0 20,0 C13.6244531,0 8.4375,5.18695313 8.4375,11.5625 C8.4375,15.5115625 10.4280469,19.0039844 13.4579687,21.0907812 C10.6290625,22.0669531 8.03625,23.6795313 5.85789062,25.8578125 C2.08039063,29.6353906 0,34.6578125 0,40 L3.125,40 C3.125,30.6950781 10.6950781,23.125 20,23.125 C29.3049219,23.125 36.875,30.6950781 36.875,40 L40,40 C40,34.6578125 37.9196094,29.6353906 34.1421875,25.8578125 Z M20.2692308,20 C15.3278551,20 11.3076923,16.2042165 11.3076923,11.5384615 C11.3076923,6.87270655 15.3278551,3.07692308 20.2692308,3.07692308 C25.2106065,3.07692308 29.2307692,6.87270655 29.2307692,11.5384615 C29.2307692,16.2042165 25.2106065,20 20.2692308,20 Z" id="Shape"></path>
                </g>
            </g>
        </g>
    </g>
</svg>