<?xml version="1.0" encoding="UTF-8"?>
<svg width="30px" height="30px" viewBox="0 0 30 30" version="1.1" xmlns="http://www.w3.org/2000/svg" xmlns:xlink="http://www.w3.org/1999/xlink">
    <!-- Generator: sketchtool 52.2 (67145) - http://www.bohemiancoding.com/sketch -->
    <title>0721DAF0-5F46-4D24-BDE8-309CDD736586</title>
    <desc>Created with sketchtool.</desc>
    <g id="Page-2" stroke="none" stroke-width="1" fill="none" fill-rule="evenodd">
        <g id="menu_unlogin" transform="translate(-113.000000, -16.000000)" fill-rule="nonzero">
            <g id="avatar" transform="translate(113.000000, 16.000000)">
                <circle id="Oval" fill="#FFFFFF" opacity="0.181780134" cx="15" cy="15" r="15"></circle>
                <g id="ac_ic" transform="translate(7.682927, 7.682927)" fill="#4A998C">
                    <path d="M12.4910442,9.4601753 C11.6940835,8.66324314 10.7454935,8.07327553 9.71052782,7.71613948 C10.8190072,6.95267721 11.5472561,5.67496189 11.5472561,4.23018293 C11.5472561,1.89766578 9.64959032,0 7.31707317,0 C4.98455602,0 3.08689024,1.89766578 3.08689024,4.23018293 C3.08689024,5.67496189 3.8151391,6.95267721 4.9236471,7.71613948 C3.8886814,8.07327553 2.94009146,8.66324314 2.14313072,9.4601753 C0.761118521,10.8422161 0,12.6796875 0,14.6341463 L1.14329268,14.6341463 C1.14329268,11.2299066 3.91283346,8.46036585 7.31707317,8.46036585 C10.7213129,8.46036585 13.4908537,11.2299066 13.4908537,14.6341463 L14.6341463,14.6341463 C14.6341463,12.6796875 13.8730278,10.8422161 12.4910442,9.4601753 Z M7.41557223,7.31707317 C5.60775185,7.31707317 4.1369606,5.9283719 4.1369606,4.22138837 C4.1369606,2.51440484 5.60775185,1.12570356 7.41557223,1.12570356 C9.22339262,1.12570356 10.6941839,2.51440484 10.6941839,4.22138837 C10.6941839,5.9283719 9.22339262,7.31707317 7.41557223,7.31707317 Z" id="Shape"></path>
                </g>
            </g>
        </g>
    </g>
</svg>