<?xml version="1.0" encoding="UTF-8"?>
<svg width="20px" height="18px" viewBox="0 0 20 18" version="1.1" xmlns="http://www.w3.org/2000/svg" xmlns:xlink="http://www.w3.org/1999/xlink">
    <!-- Generator: sketchtool 52.2 (67145) - http://www.bohemiancoding.com/sketch -->
    <title>40BC8CE0-0491-4892-998D-1003884CD99F</title>
    <desc>Created with sketchtool.</desc>
    <g id="Page-1" stroke="none" stroke-width="1" fill="none" fill-rule="evenodd">
        <g id="exchange-_market" transform="translate(-1137.000000, -713.000000)" fill="#FFFFFF" fill-rule="nonzero">
            <g id="Group-10-Copy" transform="translate(607.000000, 651.000000)">
                <g id="Group-23-Copy" transform="translate(530.000000, 62.000000)">
                    <g id="ic_wallet">
                        <path d="M18.8802297,7.46513536 L18.4044299,7.46513536 L18.4044299,4.60623462 C18.4044299,3.43724364 17.4528302,2.48974569 16.2879409,2.48974569 L15.8490566,2.48974569 L15.8531583,1.42739951 C15.8531583,0.639868745 15.2132896,0 14.4257588,0 L1.73502871,0 C0.787530763,0 0.0123051682,0.762920427 0,1.71041838 C0,1.71862182 0,1.72682527 0,1.73502871 L0,15.7383101 C0,16.5258409 0.639868745,17.1657096 1.42739951,17.1657096 L16.2920427,17.1657096 C17.4610336,17.1657096 18.4085316,16.2141099 18.4085316,15.0492207 L18.4085316,12.1862182 L18.8843314,12.1862182 C19.4995898,12.1862182 20,11.685808 20,11.0705496 L20,8.58080394 C19.9958983,7.96554553 19.4954881,7.46513536 18.8802297,7.46513536 Z M1.73502871,0.984413454 L14.4257588,0.984413454 C14.6677605,0.984413454 14.8687449,1.18129614 14.8687449,1.42329779 L14.8646432,2.48974569 L1.73502871,2.48974569 C1.32075472,2.48974569 0.984413454,2.15340443 0.984413454,1.73913043 C0.984413454,1.32485644 1.32075472,0.984413454 1.73502871,0.984413454 Z M17.4200164,15.0451189 C17.4200164,15.6685808 16.9114028,16.1771944 16.2879409,16.1771944 L1.42329779,16.1771944 C1.18129614,16.1771944 0.980311731,15.9803117 0.980311731,15.7342084 L0.980311731,3.30188679 C1.2100082,3.41263331 1.46431501,3.47415915 1.73502871,3.47415915 L16.2879409,3.47415915 C16.9114028,3.47415915 17.4200164,3.98277276 17.4200164,4.60623462 L17.4200164,7.46513536 L14.0607055,7.46513536 C13.4454471,7.46513536 12.9450369,7.96554553 12.9450369,8.58080394 L12.9450369,11.0705496 C12.9450369,11.685808 13.4454471,12.1862182 14.0607055,12.1862182 L17.4200164,12.1862182 L17.4200164,15.0451189 Z M19.0114848,11.0705496 C19.0114848,11.1443806 18.9540607,11.2018048 18.8802297,11.2018048 L14.0648072,11.2018048 C13.9909762,11.2018048 13.9335521,11.1443806 13.9335521,11.0705496 L13.9335521,8.58080394 C13.9335521,8.51107465 13.9909762,8.44954881 14.0648072,8.44954881 L18.8802297,8.44954881 C18.949959,8.44954881 19.0114848,8.50697293 19.0114848,8.58080394 L19.0114848,11.0705496 Z" id="Shape"></path>
                    </g>
                </g>
            </g>
        </g>
    </g>
</svg>