<?xml version="1.0" encoding="UTF-8"?>
<svg width="43px" height="43px" viewBox="0 0 43 43" version="1.1" xmlns="http://www.w3.org/2000/svg" xmlns:xlink="http://www.w3.org/1999/xlink">
    <!-- Generator: sketchtool 52.2 (67145) - http://www.bohemiancoding.com/sketch -->
    <title>E1DDD87C-2A64-4BDE-B467-5D0DFD418A79</title>
    <desc>Created with sketchtool.</desc>
    <g id="Page-1" stroke="none" stroke-width="1" fill="none" fill-rule="evenodd">
        <g id="home_dashboard" transform="translate(-37.000000, -25.000000)">
            <g id="go_logo" transform="translate(37.000000, 25.000000)">
                <circle id="Oval" fill="#4A998C" cx="21.5" cy="21.5" r="21.5"></circle>
                <path d="M13,20.148289 C13,22.0494392 13.7565467,23 15.2696629,23 C15.6142339,23 15.9363281,22.954373 16.2359551,22.8631179 C16.535582,22.7718627 16.7902611,22.6653998 17,22.5437262 L17,17.1140684 C16.8352051,17.08365 16.6404506,17.0570343 16.4157303,17.0342206 C16.1910101,17.0114067 15.9288405,17 15.6292135,17 C14.7453139,17 14.0861444,17.296575 13.6516854,17.8897338 C13.2172263,18.4828927 13,19.2357369 13,20.148289 Z M20,24.4022038 C20,26.2975301 19.5441939,27.7043113 18.6325678,28.6225895 C17.7209418,29.5408677 16.3117701,30 14.4050104,30 C13.7369486,30 13.0688969,29.937558 12.400835,29.8126722 C11.7327733,29.6877863 11.1134336,29.5224987 10.5427975,29.3168044 L11.085595,26.5619835 C11.5727234,26.7676778 12.0842005,26.9292923 12.6200418,27.046832 C13.155883,27.1643716 13.7647844,27.2231405 14.4467641,27.2231405 C15.3375131,27.2231405 15.9672911,27.0174492 16.3361169,26.6060606 C16.7049427,26.194672 16.8893528,25.6657516 16.8893528,25.0192838 L16.8893528,24.6005509 C16.5553219,24.7621679 16.2108577,24.8833788 15.8559499,24.9641873 C15.5010421,25.0449958 15.1148246,25.0853994 14.697286,25.0853994 C13.180229,25.0853994 12.0180973,24.611575 11.210856,23.6639118 C10.4036146,22.7162487 10,21.3902748 10,19.6859504 C10,18.8337882 10.1252597,18.058773 10.3757829,17.3608815 C10.6263061,16.6629901 10.9916468,16.0642817 11.4718163,15.5647383 C11.9519857,15.0651949 12.5400104,14.6795238 13.2359081,14.4077135 C13.9318059,14.1359031 14.7181584,14 15.5949896,14 C15.9707743,14 16.3569918,14.0183653 16.7536534,14.0550964 C17.1503152,14.0918275 17.5434914,14.1395773 17.9331941,14.1983471 C18.3228969,14.2571169 18.6951965,14.326905 19.0501043,14.4077135 C19.4050122,14.4885219 19.7216409,14.5730023 20,14.661157 L20,24.4022038 Z M34,19.9783393 C34,20.8736507 33.8723417,21.6931371 33.6170213,22.4368231 C33.3617009,23.1805092 32.9929102,23.8158819 32.5106383,24.3429603 C32.0283664,24.8700388 31.450358,25.2779769 30.7765958,25.566787 C30.1028335,25.8555972 29.3475219,26 28.5106383,26 C27.6879392,26 26.9397197,25.8555972 26.2659575,25.566787 C25.5921952,25.2779769 25.0141868,24.8700388 24.5319149,24.3429603 C24.049643,23.8158819 23.6737602,23.1805092 23.4042554,22.4368231 C23.1347505,21.6931371 23,20.8736507 23,19.9783393 C23,19.083028 23.1382965,18.2671517 23.4148936,17.5306859 C23.6914908,16.7942201 24.0744656,16.1660676 24.5638298,15.6462094 C25.053194,15.1263512 25.6347484,14.7220231 26.3085106,14.433213 C26.9822729,14.1444029 27.7163081,14 28.5106383,14 C29.319153,14 30.0602803,14.1444029 30.7340425,14.433213 C31.4078048,14.7220231 31.9858132,15.1263512 32.4680851,15.6462094 C32.950357,16.1660676 33.3262398,16.7942201 33.5957447,17.5306859 C33.8652496,18.2671517 34,19.083028 34,19.9783393 Z M31,20.47651 C31,19.3959677 30.7848222,18.5464236 30.3544601,17.9278523 C29.9240981,17.309281 29.3098632,17 28.5117371,17 C27.713611,17 27.0954639,17.309281 26.657277,17.9278523 C26.2190901,18.5464236 26,19.3959677 26,20.47651 C26,21.5570524 26.2190901,22.4144263 26.657277,23.0486577 C27.0954639,23.682889 27.713611,24 28.5117371,24 C29.3098632,24 29.9240981,23.682889 30.3544601,23.0486577 C30.7848222,22.4144263 31,21.5570524 31,20.47651 Z" id="go" fill="#FFFFFF" fill-rule="nonzero"></path>
            </g>
        </g>
    </g>
</svg>