<?xml version="1.0" encoding="UTF-8"?>
<svg width="134px" height="43px" viewBox="0 0 134 43" version="1.1" xmlns="http://www.w3.org/2000/svg" xmlns:xlink="http://www.w3.org/1999/xlink">
    <!-- Generator: sketchtool 52.2 (67145) - http://www.bohemiancoding.com/sketch -->
    <title>9F86ED1A-09DF-4EAC-8990-F15DDF1473DE</title>
    <desc>Created with sketchtool.</desc>
    <g id="Page-1" stroke="none" stroke-width="1" fill="none" fill-rule="evenodd">
        <g id="exchange" transform="translate(-247.000000, -12.000000)">
            <g id="logo_go" transform="translate(247.000000, 12.000000)">
                <path d="M53.0401948,11 C53.7819769,11 54.4619335,11.0717293 55.0800852,11.2151898 C55.6982369,11.3586505 56.1750897,11.4978896 56.5106577,11.6329114 L55.7423874,14.6455696 C55.3891578,14.4936702 55.0050264,14.3797473 54.5899817,14.3037975 C54.174937,14.2278478 53.7908057,14.1898734 53.4375761,14.1898734 C52.9607163,14.1898734 52.5589236,14.2531639 52.2321864,14.3797468 C51.9054491,14.5063298 51.6493614,14.6793238 51.463916,14.8987342 C51.2784704,15.1181446 51.1460114,15.3797453 51.0665347,15.6835443 C50.9870581,15.9873433 50.9473203,16.3164539 50.9473203,16.6708861 L50.9473203,17.3291139 L55.8218636,17.3291139 L55.8218636,20.4683544 L50.9473203,20.4683544 L50.9473203,30.6455696 L47,30.6455696 L47,16.6202532 C47,14.8987256 47.5077598,13.5316507 48.5232947,12.5189873 C49.5388297,11.5063241 51.044448,11 53.0401948,11 Z M66.5776492,20.6708861 C66.2244197,20.5864975 65.8093812,20.4978907 65.3325213,20.4050632 C64.8556615,20.3122358 64.3434863,20.2658227 63.7959805,20.2658227 C63.5487199,20.2658227 63.2528946,20.2869196 62.9084958,20.3291139 C62.5640969,20.3713082 62.3035941,20.4177212 62.1269793,20.4683544 L62.1269793,30.6455696 L58.1796589,30.6455696 L58.1796589,18.0379747 C58.886118,17.8016866 59.7206103,17.5780602 60.6831608,17.3670886 C61.6457113,17.1561171 62.7186299,17.0506329 63.9019488,17.0506329 C64.1138866,17.0506329 64.3699741,17.063291 64.6702192,17.0886076 C64.9704644,17.1139242 65.270705,17.1476791 65.5709501,17.1898734 C65.8711951,17.2320678 66.1714358,17.2827002 66.4716809,17.3417722 C66.771926,17.4008442 67.0280135,17.4725734 67.2399513,17.556962 L66.5776492,20.6708861 Z M73.3066382,30.6455696 L69.3593179,30.6455696 L69.3593179,17.3291139 L73.3066382,17.3291139 L73.3066382,30.6455696 Z M73.6775274,13.4810127 C73.6775274,14.1729993 73.4435164,14.7172976 72.9754873,15.1139241 C72.5074581,15.5105505 71.9555452,15.7088608 71.319732,15.7088608 C70.6839188,15.7088608 70.132006,15.5105505 69.6639768,15.1139241 C69.1959477,14.7172976 68.9619367,14.1729993 68.9619367,13.4810127 C68.9619367,12.7890261 69.1959477,12.2447278 69.6639768,11.8481013 C70.132006,11.4514748 70.6839188,11.2531646 71.319732,11.2531646 C71.9555452,11.2531646 72.5074581,11.4514748 72.9754873,11.8481013 C73.4435164,12.2447278 73.6775274,12.7890261 73.6775274,13.4810127 Z M76.3532278,24.0886076 C76.3532278,22.9071671 76.5430858,21.8734222 76.9228076,20.9873418 C77.3025293,20.1012614 77.8014585,19.3628722 78.4196102,18.7721519 C79.0377619,18.1814317 79.7486257,17.7341788 80.5522229,17.4303798 C81.3558201,17.1265808 82.1814818,16.9746836 83.0292327,16.9746836 C85.0073181,16.9746836 86.5703353,17.5527368 87.7183316,18.7088608 C88.866327,19.8649847 89.4403165,21.5653896 89.4403165,23.8101266 C89.4403165,24.029537 89.431486,24.2700409 89.413825,24.5316456 C89.3961631,24.7932503 89.3785021,25.0253154 89.3608403,25.2278481 L80.4065165,25.2278481 C80.4948238,26.0042233 80.8745398,26.6202509 81.545676,27.0759493 C82.2168121,27.5316478 83.1175339,27.7594937 84.2478685,27.7594937 C84.971989,27.7594937 85.6828528,27.6962032 86.3804813,27.5696203 C87.078109,27.4430373 87.6476832,27.2869208 88.0892204,27.1012658 L88.6190617,30.164557 C88.4071245,30.2658233 88.124545,30.3670881 87.7713155,30.4683544 C87.4180859,30.5696208 87.0251243,30.6582275 86.5924176,30.7341773 C86.1597118,30.810127 85.6961048,30.8734175 85.2015834,30.9240507 C84.7070621,30.9746838 84.2125481,31 83.7180268,31 C82.464062,31 81.3734821,30.8227866 80.4462546,30.4683544 C79.519027,30.1139223 78.7507643,29.6286951 78.1414434,29.0126583 C77.5321224,28.3966214 77.0817615,27.6666709 76.7903471,26.8227848 C76.4989328,25.9788988 76.3532278,25.0675154 76.3532278,24.0886076 Z M85.6254567,22.6455696 C85.6077953,22.3248929 85.5503963,22.0126597 85.4532582,21.7088607 C85.3561201,21.4050617 85.2059998,21.1350222 85.0028928,20.8987342 C84.7997858,20.6624461 84.5436983,20.4683552 84.2346224,20.3164557 C83.9255466,20.1645562 83.5414152,20.0886076 83.0822168,20.0886076 C82.6406799,20.0886076 82.2609638,20.1603368 81.9430572,20.3037975 C81.6251507,20.4472581 81.3602325,20.6371296 81.1482947,20.8734177 C80.936357,21.1097058 80.7729908,21.3839647 80.6581912,21.6962025 C80.5433917,22.0084404 80.4595009,22.3248929 80.4065165,22.6455696 L85.6254567,22.6455696 Z M92.486906,17.7848102 C93.1580423,17.5991552 94.0234417,17.4261612 95.0831304,17.2658228 C96.1428191,17.1054844 97.2554752,17.0253164 98.4211325,17.0253164 C99.6044517,17.0253164 100.589065,17.1729943 101.375,17.4683544 C102.160935,17.7637146 102.783493,18.1814319 103.242692,18.721519 C103.70189,19.2616061 104.028623,19.9029498 104.222899,20.6455696 C104.417175,21.3881893 104.514311,22.2151853 104.514311,23.1265823 L104.514311,30.6455696 L100.566992,30.6455696 L100.566992,23.5822785 C100.566992,22.3670825 100.39921,21.5063317 100.063642,21 C99.7280735,20.4936683 99.101101,20.2405063 98.1827038,20.2405063 C97.9001208,20.2405063 97.5998795,20.2531644 97.2819728,20.278481 C96.9640669,20.3037976 96.6814875,20.3333332 96.4342265,20.3670886 L96.4342265,30.6455696 L92.486906,30.6455696 L92.486906,17.7848102 Z M111.455238,23.8860759 C111.455238,25.0506387 111.728987,25.9873382 112.276492,26.6962025 C112.823998,27.4050668 113.636414,27.7594937 114.713763,27.7594937 C115.066993,27.7594937 115.393726,27.7468356 115.693971,27.721519 C115.994216,27.6962024 116.241473,27.6666668 116.435749,27.6329114 L116.435749,20.7721519 C116.188488,20.6202524 115.866172,20.4936714 115.468788,20.3924051 C115.071405,20.2911387 114.669613,20.2405063 114.263398,20.2405063 C112.391282,20.2405063 111.455238,21.4556841 111.455238,23.8860759 Z M120.38307,30.2151898 C120.02984,30.3164562 119.623632,30.4135017 119.164434,30.5063291 C118.705236,30.5991566 118.223967,30.6793246 117.720615,30.7468354 C117.217263,30.8143463 116.705088,30.8691981 116.184074,30.9113924 C115.66306,30.9535867 115.164131,30.9746836 114.687272,30.9746836 C113.539276,30.9746836 112.514925,30.8143476 111.61419,30.4936709 C110.713455,30.1729942 109.954022,29.7130832 109.335871,29.1139241 C108.717719,28.5147649 108.245282,27.7890338 107.918544,26.9367088 C107.591807,26.0843839 107.428441,25.1265876 107.428441,24.0632912 C107.428441,22.983117 107.569731,22.0084432 107.852314,21.1392405 C108.134898,20.2700378 108.541106,19.5316486 109.07095,18.9240507 C109.600794,18.3164527 110.249844,17.8523222 111.018118,17.5316456 C111.786393,17.2109688 112.665038,17.0506329 113.654081,17.0506329 C114.201586,17.0506329 114.691685,17.1012653 115.124391,17.2025317 C115.557097,17.303798 115.994212,17.4472564 116.435749,17.6329114 L116.435749,11.6075949 L120.38307,11 L120.38307,30.2151898 Z M128.092266,27.9367088 C128.816386,27.9367088 129.328561,27.869199 129.628806,27.7341773 C129.929052,27.5991554 130.079172,27.3375547 130.079172,26.9493671 C130.079172,26.6455681 129.884898,26.379748 129.496346,26.1518988 C129.107793,25.9240495 128.516143,25.6666681 127.721376,25.3797468 C127.103225,25.1603364 126.542481,24.9324907 126.039129,24.6962025 C125.535777,24.4599144 125.107492,24.1772168 124.754263,23.8481013 C124.401033,23.5189857 124.127284,23.1265846 123.933008,22.6708861 C123.738732,22.2151876 123.641596,21.6666698 123.641596,21.0253164 C123.641596,19.7763651 124.127279,18.7890332 125.09866,18.0632912 C126.070041,17.3375491 127.403463,16.9746836 129.098965,16.9746836 C129.946715,16.9746836 130.759132,17.0464128 131.536237,17.1898734 C132.313341,17.3333341 132.931483,17.4894507 133.390682,17.6582278 L132.701888,20.5949368 C132.24269,20.4430373 131.74376,20.3080175 131.205085,20.1898734 C130.666411,20.0717293 130.061513,20.0126583 129.390377,20.0126583 C128.154074,20.0126583 127.535932,20.3417688 127.535932,21 C127.535932,21.1518995 127.562424,21.2869193 127.615408,21.4050633 C127.668392,21.5232073 127.77436,21.6371303 127.933313,21.7468354 C128.092267,21.8565407 128.308617,21.9746829 128.582369,22.1012658 C128.856122,22.2278488 129.204931,22.3670878 129.628806,22.5189873 C130.494218,22.8227863 131.209498,23.1223614 131.774665,23.4177215 C132.339832,23.7130817 132.785778,24.0337536 133.112516,24.3797468 C133.439253,24.7257402 133.668848,25.1097025 133.801309,25.5316456 C133.93377,25.9535886 134,26.4430352 134,27 C134,28.3164623 133.48341,29.3122329 132.450213,29.9873418 C131.417017,30.6624507 129.955552,31 128.065774,31 C126.82947,31 125.800704,30.8987352 124.979446,30.6962025 C124.158187,30.4936698 123.588613,30.3248952 123.270707,30.1898734 L123.933008,27.1265823 C124.604144,27.3797481 125.292932,27.5780583 125.999391,27.721519 C126.70585,27.8649796 127.403468,27.9367088 128.092266,27.9367088 Z" id="friends" fill="#FFFFFF" fill-rule="nonzero"></path>
                <circle id="Oval" fill="#4A998C" cx="21.5" cy="21.5" r="21.5"></circle>
                <path d="M11.9675968,21.7857143 C11.9675968,23.9606336 12.8463759,25.0480769 14.6039604,25.0480769 C15.0042024,25.0480769 15.3783361,24.9958796 15.7263727,24.8914835 C16.0744092,24.7870874 16.3702358,24.6652937 16.6138614,24.5260989 L16.6138614,18.3145605 C16.4224413,18.2797617 16.196221,18.2493133 15.9351935,18.2232143 C15.6741661,18.1971152 15.3696387,18.1840659 15.0216021,18.1840659 C13.9948943,18.1840659 13.2292254,18.5233483 12.7245724,19.2019231 C12.2199195,19.8804979 11.9675968,20.741753 11.9675968,21.7857143 Z M20.5031503,27.3708791 C20.5031503,29.6153958 19.9332491,31.281359 18.7934293,32.3688187 C17.6536096,33.4562783 15.8917011,34 13.5076507,34 C12.6723631,34 11.8370879,33.9260538 11.0018002,33.7781594 C10.1665125,33.6302648 9.39214278,33.434525 8.67866787,33.1909341 L9.3573357,29.9285714 C9.96639967,30.1721624 10.6059072,30.3635524 11.2758776,30.5027473 C11.9458479,30.6419421 12.7071665,30.7115385 13.5598559,30.7115385 C14.6735729,30.7115385 15.4609938,30.4679511 15.9221422,29.9807692 C16.3832907,29.4935873 16.6138614,28.86722 16.6138614,28.1016484 L16.6138614,27.6057692 C16.1962175,27.7971622 15.7655287,27.9407046 15.3217822,28.0364011 C14.8780356,28.1320975 14.3951421,28.179945 13.8730873,28.179945 C11.9762882,28.179945 10.5232573,27.6188243 9.5139514,26.4965659 C8.50464542,25.3743075 8,23.8040394 8,21.7857143 C8,20.7765517 8.1566141,19.8587495 8.46984699,19.0322802 C8.78307988,18.2058109 9.23987095,17.4967979 9.84023406,16.9052198 C10.4405971,16.3136417 11.1758132,15.8569155 12.0459046,15.5350275 C12.915996,15.2131394 13.8991844,15.0521978 14.9954996,15.0521978 C15.4653489,15.0521978 15.9482424,15.0739467 16.4441944,15.117445 C16.9401465,15.1609435 17.4317407,15.2174905 17.9189919,15.2870879 C18.4062431,15.3566854 18.8717349,15.439331 19.3154815,15.5350275 C19.7592282,15.6307239 20.1551137,15.7307687 20.5031503,15.8351649 L20.5031503,27.3708791 Z M37,22.2032967 C37,23.2820566 36.8433859,24.2694552 36.530153,25.165522 C36.2169202,26.0615888 35.7644794,26.8271488 35.1728173,27.4622253 C34.5811551,28.0973017 33.8720413,28.5888261 33.0454546,28.9368132 C32.2188677,29.2848003 31.2922343,29.4587912 30.2655265,29.4587912 C29.2562206,29.4587912 28.3382879,29.2848003 27.5117012,28.9368132 C26.6851144,28.5888261 25.9760006,28.0973017 25.3843385,27.4622253 C24.7926763,26.8271488 24.3315348,26.0615888 24.0009001,25.165522 C23.6702654,24.2694552 23.5049505,23.2820566 23.5049505,22.2032967 C23.5049505,21.1245367 23.6746157,20.1414879 24.0139514,19.2541209 C24.3532871,18.3667538 24.8231293,17.6098932 25.4234924,16.9835165 C26.0238554,16.3571397 26.7373196,15.8699651 27.5639064,15.521978 C28.3904932,15.1739909 29.2910242,15 30.2655265,15 C31.2574307,15 32.1666625,15.1739909 32.9932493,15.521978 C33.8198361,15.8699651 34.5289499,16.3571397 35.1206121,16.9835165 C35.7122742,17.6098932 36.1734157,18.3667538 36.5040504,19.2541209 C36.8346852,20.1414879 37,21.1245367 37,22.2032967 Z M33.0324032,22.2032967 C33.0324032,21.0027412 32.7931317,20.0588404 32.3145815,19.3715659 C31.8360312,18.6842915 31.1530197,18.3406594 30.2655265,18.3406594 C29.3780334,18.3406594 28.6906715,18.6842915 28.2034204,19.3715659 C27.7161692,20.0588404 27.4725473,21.0027412 27.4725473,22.2032967 C27.4725473,23.4038522 27.7161692,24.3564525 28.2034204,25.0611264 C28.6906715,25.7658002 29.3780334,26.1181319 30.2655265,26.1181319 C31.1530197,26.1181319 31.8360312,25.7658002 32.3145815,25.0611264 C32.7931317,24.3564525 33.0324032,23.4038522 33.0324032,22.2032967 Z" id="go" fill="#FFFFFF" fill-rule="nonzero"></path>
            </g>
        </g>
    </g>
</svg>