<?xml version="1.0" encoding="UTF-8"?>
<svg width="30px" height="38px" viewBox="0 0 30 38" version="1.1" xmlns="http://www.w3.org/2000/svg" xmlns:xlink="http://www.w3.org/1999/xlink">
    <!-- Generator: sketchtool 52.2 (67145) - http://www.bohemiancoding.com/sketch -->
    <title>7DF40E6D-589B-41D5-919C-0E86FF2BB093</title>
    <desc>Created with sketchtool.</desc>
    <g id="Page-1" stroke="none" stroke-width="1" fill="none" fill-rule="evenodd">
        <g id="profile" transform="translate(-1015.000000, -438.000000)" fill="#FFFFFF">
            <g id="padlock" transform="translate(1015.000000, 438.000000)">
                <path d="M25.5882353,13.8235294 L22.9384559,13.8235294 L22.9384559,7.77720588 C22.9384559,3.48882353 19.3760294,0 14.9972794,0 C10.6185294,0 7.05610294,3.48882353 7.05610294,7.77720588 L7.05610294,13.8235294 L4.41176471,13.8235294 C1.97911765,13.8235294 0,15.8026471 0,18.2352941 L0,33.2352941 C0,35.6679412 1.97911765,37.6470588 4.41176471,37.6470588 L25.5882353,37.6470588 C28.0208824,37.6470588 30,35.6679412 30,33.2352941 L30,18.2352941 C30,15.8026471 28.0208824,13.8235294 25.5882353,13.8235294 Z M9.99727941,7.77720588 C9.99727941,5.11058824 12.2402941,2.94117647 14.9972794,2.94117647 C17.7542647,2.94117647 19.9972794,5.11058824 19.9972794,7.77720588 L19.9972794,13.8235294 L9.99727941,13.8235294 L9.99727941,7.77720588 Z M27.0588235,33.2352941 C27.0588235,34.0461765 26.3991176,34.7058824 25.5882353,34.7058824 L4.41176471,34.7058824 C3.60088235,34.7058824 2.94117647,34.0461765 2.94117647,33.2352941 L2.94117647,18.2352941 C2.94117647,17.4244118 3.60088235,16.7647059 4.41176471,16.7647059 L25.5882353,16.7647059 C26.3991176,16.7647059 27.0588235,17.4244118 27.0588235,18.2352941 L27.0588235,33.2352941 Z" id="Shape" fill-rule="nonzero"></path>
                <path d="M15,21.0294118 C13.4974265,21.0294118 12.2794118,22.2474265 12.2794118,23.75 C12.2794118,24.7094118 12.7764706,25.5522059 13.5266912,26.0366176 L13.5266912,29.2647059 C13.5266912,30.0768382 14.1850735,30.7352941 14.9972794,30.7352941 C15.8094118,30.7352941 16.4678676,30.0768382 16.4678676,29.2647059 L16.4678676,26.0400735 C17.2211029,25.55625 17.7205882,24.7117647 17.7205882,23.75 C17.7205882,22.2474265 16.5025735,21.0294118 15,21.0294118 Z" id="Path"></path>
            </g>
        </g>
    </g>
</svg>