<?xml version="1.0" encoding="UTF-8"?>
<svg width="108px" height="118px" viewBox="0 0 108 118" version="1.1" xmlns="http://www.w3.org/2000/svg" xmlns:xlink="http://www.w3.org/1999/xlink">
    <!-- Generator: sketchtool 52.2 (67145) - http://www.bohemiancoding.com/sketch -->
    <title>EF963842-6B0E-41DA-AF7C-8FFC2E4B7DA2</title>
    <desc>Created with sketchtool.</desc>
    <g id="Page-1" stroke="none" stroke-width="1" fill="none" fill-rule="evenodd">
        <g id="Withdrawal_popap" transform="translate(-906.000000, -414.000000)" fill="#FFFFFF" fill-rule="nonzero">
            <g id="stopwatch" transform="translate(906.000000, 414.000000)">
                <path d="M59.1522597,60.5074991 L34.0734529,42.3645976 C33.3062088,41.8123466 32.2425295,41.8937309 31.5682847,42.5661208 C30.8940399,43.2404485 30.810728,44.3023208 31.3667862,45.0715968 L49.511334,70.1573602 C50.7009498,71.7947362 52.5396232,72.8236672 54.5565451,72.9806228 C54.7386687,72.9941868 54.9188548,73 55.0971035,73 C56.9222144,73 58.6775759,72.279167 59.9776284,70.9770171 C61.4055549,69.5489151 62.1359868,67.5743753 61.9790505,65.5572055 C61.8221142,63.5400358 60.7933096,61.7011365 59.1522597,60.5074991 Z M57.2380245,68.2370766 C56.6102793,68.8629612 55.7364736,69.1826855 54.8587928,69.1148652 C53.9752996,69.0470449 53.1673683,68.5936176 52.6481223,67.8805355 L41.5792701,52.5783362 L56.8757148,63.6446728 C57.5945217,64.1678581 58.0459558,64.9758886 58.1157052,65.8614281 C58.1854547,66.7430921 57.8638322,67.611192 57.2380245,68.2370766 Z" id="Shape"></path>
                <path d="M105.070602,51.1766 C105.068644,51.1707 105.070602,51.1628333 105.068644,51.1569333 C105.066686,51.1490667 105.060812,51.1431667 105.058853,51.1353 C103.860463,46.6532667 102.086376,42.4092 99.8305835,38.4758667 C99.8110019,38.4345667 99.8110019,38.3913 99.7875041,38.35 C99.7640062,38.3106667 99.7268013,38.2890333 99.7013453,38.2516667 C97.7216521,34.8395 95.3797005,31.6692333 92.7185698,28.7939667 L96.9227255,24.5715333 L99.6935127,27.3524 L108,19.0098 L99.6935127,10.6652333 L91.3850673,19.0098 L94.1538964,21.7906667 L89.9497407,26.0131 C87.0869203,23.3423667 83.9303768,20.9882667 80.5329804,18.9999667 C80.4957755,18.9744 80.4742358,18.9370333 80.4350727,18.9134333 C80.3959096,18.8898333 80.348914,18.8918 80.3097509,18.8701667 C76.3934438,16.6026 72.1677485,14.8227667 67.7070747,13.6191667 C67.6992421,13.6172 67.6933677,13.6113 67.685535,13.6093333 C67.6777024,13.6073667 67.671828,13.6093333 67.6659535,13.6093333 C65.1360191,12.9288667 62.5355913,12.4332667 59.8744606,12.1363 L59.8744606,9.83333333 L62.8116909,9.83333333 C65.5119846,9.83333333 67.7070747,7.6287 67.7070747,4.91666667 C67.7070747,2.20463333 65.5119846,0 62.8116909,0 L45.1883091,0 C42.4880154,0 40.2929253,2.20463333 40.2929253,4.91666667 C40.2929253,7.6287 42.4880154,9.83333333 45.1883091,9.83333333 L48.1255394,9.83333333 L48.1255394,12.1363 C45.4644087,12.4332667 42.8639809,12.9288667 40.3360046,13.6093333 C40.328172,13.6113 40.3222976,13.6093333 40.3164231,13.6113 C40.3085905,13.6132667 40.302716,13.6191667 40.2948834,13.6211333 C35.8342097,14.8247333 31.6085143,16.6065333 27.6922073,18.8721333 C27.651086,18.8918 27.6060485,18.8918 27.5649273,18.9154 C27.5257642,18.939 27.5042245,18.9763667 27.4670196,19.0019333 C24.0715814,20.9902333 20.9130797,23.3423667 18.0502593,26.0150667 L13.8461036,21.7906667 L16.6149327,19.0098 L8.30648729,10.6652333 L0,19.0098 L8.30648729,27.3524 L11.0772745,24.5715333 L15.2814302,28.7939667 C12.6222577,31.6692333 10.2783479,34.8395 8.30061283,38.2516667 C8.27515683,38.2890333 8.23599376,38.3106667 8.21445407,38.35 C8.19095623,38.3913 8.19291439,38.4345667 8.1713747,38.4758667 C5.91362367,42.4092 4.14149472,46.6532667 2.94310476,51.1353 C2.94114661,51.1431667 2.93527215,51.1490667 2.93331399,51.1569333 C2.93135584,51.1628333 2.93331399,51.1707 2.93135584,51.1766 C1.76233818,55.5583333 1.12985459,60.1544333 1.12985459,64.9 C1.12985459,69.6455667 1.76233818,74.2416667 2.92939769,78.6234 C2.93135584,78.6312667 2.92939769,78.6371667 2.93135584,78.6430667 C2.93331399,78.6529 2.94114661,78.6607667 2.94310476,78.6706 C4.14149472,83.1506667 5.91362367,87.3927667 8.16941654,91.3241333 C8.18899808,91.3654333 8.18899808,91.4087 8.21249592,91.45 C8.24578453,91.5070333 8.29278022,91.5503 8.32998513,91.6034 C10.611234,95.5229667 13.3683142,99.1298333 16.5366066,102.3296 C16.567937,102.366967 16.579686,102.4122 16.6149327,102.4476 C16.6501795,102.483 16.695217,102.4948 16.7324219,102.526267 C19.9320448,105.724067 23.5428799,108.502967 27.4670196,110.800033 C27.5042245,110.8256 27.5257642,110.862967 27.5649273,110.886567 C27.6236719,110.92 27.688291,110.935733 27.7489937,110.963267 C31.6476774,113.213133 35.8557494,114.983133 40.2948834,116.180833 C40.302716,116.1828 40.3085905,116.1887 40.3164231,116.190667 C40.3262139,116.192633 40.3360046,116.192633 40.3457954,116.1946 C44.7046452,117.366733 49.2788918,118 54,118 C58.7211082,118 63.2953548,117.366733 67.6542046,116.1946 C67.6639954,116.192633 67.6737861,116.1946 67.6835769,116.190667 C67.6914095,116.1887 67.697284,116.1828 67.7051166,116.180833 C72.1442506,114.983133 76.3503644,113.213133 80.2510063,110.963267 C80.311709,110.935733 80.3763281,110.921967 80.4350727,110.886567 C80.4742358,110.862967 80.4957755,110.8256 80.5329804,110.800033 C84.4571201,108.502967 88.065997,105.724067 91.2675781,102.526267 C91.304783,102.4948 91.3498205,102.483 91.3850673,102.4476 C91.420314,102.4122 91.432063,102.365 91.4633934,102.3296 C94.6316858,99.1298333 97.388766,95.5229667 99.6700149,91.6034 C99.7072198,91.5503 99.7542155,91.509 99.7875041,91.45 C99.8110019,91.4087 99.8090438,91.3654333 99.8305835,91.3241333 C102.086376,87.3927667 103.858505,83.1506667 105.056895,78.6706 C105.058853,78.6607667 105.066686,78.6529 105.068644,78.6430667 C105.070602,78.6371667 105.068644,78.6293 105.070602,78.6234 C106.237662,74.2416667 106.870145,69.6455667 106.870145,64.9 C106.870145,60.1544333 106.237662,55.5583333 105.070602,51.1766 Z M99.6935127,16.2269667 L102.462342,19.0098 L99.6935127,21.7906667 L96.9227255,19.0098 L99.6935127,16.2269667 Z M5.53765819,19.0098 L8.30648729,16.2269667 L11.0772745,19.0098 L8.30648729,21.7906667 L5.53765819,19.0098 Z M96.9951771,78.5073667 L100.745041,79.5162667 C99.8540813,82.3836667 98.6987707,85.1350333 97.3241469,87.7526667 L93.9815789,85.8135333 C93.0455815,85.2687667 91.8471915,85.5893333 91.3067411,86.5333333 C90.7662907,87.4753667 91.0874279,88.677 92.0234253,89.2198 L95.3581608,91.1530333 C93.766182,93.6743 91.9588063,96.0421667 89.9497407,98.2251667 L87.2298655,95.4934667 C86.4642274,94.7245 85.2266744,94.7245 84.4610364,95.4934667 C83.6953983,96.2624333 83.6953983,97.5053667 84.4610364,98.2743333 L87.1809116,101.006033 C85.0073612,103.023833 82.6497444,104.839067 80.1393915,106.437967 L78.2145266,103.088733 C77.6721181,102.144733 76.47177,101.8222 75.5396889,102.368933 C74.6017333,102.911733 74.2805961,104.115333 74.8230047,105.0554 L76.7537441,108.4125 C74.1474417,109.7931 71.4099431,110.953433 68.5529971,111.848267 L67.5484643,108.084067 C67.2684483,107.033867 66.1953802,106.408467 65.1497262,106.693633 C64.1060304,106.974867 63.4852957,108.0526 63.7653117,109.1028 L64.7659281,112.8552 C61.9148566,113.500267 58.9717518,113.897533 55.9581535,114.0175 L55.9581535,110.133333 C55.9581535,109.045767 55.0828589,108.166667 54,108.166667 C52.9171411,108.166667 52.0418465,109.045767 52.0418465,110.133333 L52.0418465,114.0175 C49.0282482,113.897533 46.0851434,113.500267 43.2340719,112.8552 L44.2346883,109.1028 C44.5147043,108.054567 43.8939696,106.974867 42.8502738,106.693633 C41.8065779,106.410433 40.7315517,107.033867 40.4515357,108.084067 L39.4470029,111.848267 C36.5920151,110.953433 33.8525583,109.7931 31.2462559,108.4125 L33.1769953,105.0554 C33.7174457,104.113367 33.3963085,102.911733 32.4603111,102.368933 C31.5243137,101.824167 30.3259238,102.144733 29.7854734,103.088733 L27.8606085,106.437967 C25.3502556,104.839067 22.9926388,103.023833 20.8190884,101.006033 L23.5389636,98.2743333 C24.3046017,97.5053667 24.3046017,96.2624333 23.5389636,95.4934667 C22.7733256,94.7245 21.5357726,94.7245 20.7701345,95.4934667 L18.0502593,98.2251667 C16.0411937,96.0421667 14.233818,93.6743 12.6418392,91.1530333 L15.9765747,89.2198 C16.9145302,88.677 17.2356674,87.4734 16.6932589,86.5333333 C16.1508503,85.5893333 14.9505022,85.2668 14.0184211,85.8135333 L10.6758531,87.7526667 C9.30122929,85.1350333 8.1459187,82.3856333 7.25495884,79.5162667 L11.0048229,78.5073667 C12.0485187,78.2261333 12.6692534,77.1484 12.3892374,76.0982 C12.1111796,75.048 11.0381115,74.4226 9.99049933,74.7077667 L6.25238423,75.7127333 C5.61206803,72.8492667 5.21456286,69.8933667 5.09511549,66.8666667 L8.96246872,66.8666667 C10.0453276,66.8666667 10.9206223,65.9875667 10.9206223,64.9 C10.9206223,63.8124333 10.0453276,62.9333333 8.96246872,62.9333333 L5.09511549,62.9333333 C5.21456286,59.9066333 5.61010987,56.9507333 6.25238423,54.0872667 L9.99049933,55.0942 C10.1608587,55.1394333 10.331218,55.1610667 10.4996192,55.1610667 C11.363165,55.1610667 12.154259,54.5828667 12.3892374,53.7037667 C12.6712115,52.6555333 12.0485187,51.5758333 11.0048229,51.2946 L7.25495884,50.2837333 C8.1459187,47.4163333 9.30122929,44.6649667 10.6758531,42.0473333 L14.0184211,43.9864667 C14.3238931,44.1654333 14.6606955,44.25 14.9935816,44.25 C15.6711027,44.25 16.3290423,43.8979667 16.6913007,43.2666667 C17.2317511,42.3246333 16.9106139,41.123 15.9746165,40.5802 L12.6398811,38.6469667 C14.2318599,36.1257 16.0392356,33.7578333 18.0483011,31.5748333 L20.7681764,34.3065333 C21.1500163,34.6900333 21.6513036,34.8827667 22.1525909,34.8827667 C22.6538782,34.8827667 23.1551655,34.6900333 23.5370055,34.3065333 C24.3026435,33.5375667 24.3026435,32.2946333 23.5370055,31.5256667 L20.8171302,28.7939667 C22.9906806,26.7781333 25.3482975,24.9609333 27.8586503,23.3620333 L29.7835152,26.7132333 C30.1477318,27.3425667 30.8037132,27.6965667 31.4812344,27.6965667 C31.8141205,27.6965667 32.1509229,27.612 32.458353,27.4330333 C33.3963085,26.8902333 33.7174457,25.6866333 33.1750372,24.7465667 L31.2442978,21.3875 C33.8506001,20.0069 36.5880988,18.8465667 39.4450448,17.9517333 L40.4495775,21.7179 C40.6825978,22.5950333 41.4736918,23.1752 42.3391957,23.1752 C42.5075969,23.1752 42.6779563,23.1535667 42.8483156,23.1083333 C43.8920115,22.8271 44.5127461,21.7493667 44.2327302,20.6991667 L43.2321137,16.9448 C45.5270697,16.4256 47.8788121,16.0696333 50.2814664,15.8887 C50.888494,15.8434667 51.436777,15.8100333 51.9674366,15.7844667 C51.9928926,15.7844667 52.0163905,15.7844667 52.0418465,15.7825 L52.0418465,19.6666667 C52.0418465,20.7542333 52.9171411,21.6333333 54,21.6333333 C55.0828589,21.6333333 55.9581535,20.7542333 55.9581535,19.6666667 L55.9581535,15.7825 C55.9836095,15.7825 56.0071074,15.7825 56.0325634,15.7844667 C56.563223,15.8100333 57.1095478,15.8434667 57.7185336,15.8887 C60.1211879,16.0716 62.4748885,16.4256 64.7678863,16.9448 L63.7672698,20.6991667 C63.4872539,21.7474 64.1079885,22.8271 65.1516844,23.1083333 C65.3220437,23.1535667 65.4924031,23.1752 65.6608043,23.1752 C66.52435,23.1752 67.3174022,22.5950333 67.5504225,21.7179 L68.5549552,17.9517333 C71.4099431,18.8465667 74.1493999,20.0069 76.7557022,21.3875 L74.8249628,24.7465667 C74.2845125,25.6886 74.6056496,26.8902333 75.541647,27.4330333 C75.8490771,27.612 76.1858795,27.6965667 76.5187656,27.6965667 C77.1962868,27.6965667 77.8542263,27.3425667 78.2164848,26.7132333 L80.1413497,23.3620333 C82.6517025,24.9609333 85.0093194,26.7781333 87.1828698,28.7939667 L84.4629945,31.5256667 C83.6973565,32.2946333 83.6973565,33.5375667 84.4629945,34.3065333 C84.8448345,34.6900333 85.3461218,34.8827667 85.8474091,34.8827667 C86.3486964,34.8827667 86.8499837,34.6900333 87.2318236,34.3065333 L89.9516989,31.5748333 C91.9607644,33.7578333 93.7681401,36.1257 95.3601189,38.6469667 L92.0253835,40.5802 C91.0874279,41.123 90.7662907,42.3246333 91.3086993,43.2666667 C91.6729158,43.8979667 92.3288973,44.25 93.0064184,44.25 C93.3393045,44.25 93.6761069,44.1654333 93.983537,43.9864667 L97.3261051,42.0473333 C98.7007289,44.6649667 99.8560395,47.4143667 100.746999,50.2837333 L96.9971353,51.2946 C95.9534395,51.5758333 95.3307466,52.6535667 95.6127207,53.7037667 C95.8476992,54.5828667 96.636835,55.1610667 97.5023389,55.1610667 C97.6707401,55.1610667 97.8410995,55.1394333 98.0114588,55.0942 L101.749574,54.0872667 C102.391848,56.9507333 102.787395,59.9066333 102.906843,62.9333333 L99.0375313,62.9333333 C97.9546724,62.9333333 97.0793777,63.8124333 97.0793777,64.9 C97.0793777,65.9875667 97.9546724,66.8666667 99.0375313,66.8666667 L102.904885,66.8666667 C102.785437,69.8933667 102.38989,72.8492667 101.747616,75.7147 L98.0095007,74.7097333 C96.9697211,74.4265333 95.8907785,75.0519333 95.6107626,76.1001667 C95.3307466,77.1484 95.9514813,78.2261333 96.9951771,78.5073667 Z M52.0418465,11.8432667 L52.0418465,5.9 L45.1883091,5.9 C44.6498169,5.9 44.2092323,5.4575 44.2092323,4.91666667 C44.2092323,4.37583333 44.6498169,3.93333333 45.1883091,3.93333333 L62.8116909,3.93333333 C63.3501831,3.93333333 63.7907677,4.37583333 63.7907677,4.91666667 C63.7907677,5.4575 63.3501831,5.9 62.8116909,5.9 L55.9581535,5.9 L55.9581535,11.8432667 C55.2727998,11.8137667 54.6285673,11.8 54,11.8 C53.3714327,11.8 52.7272002,11.8137667 52.0418465,11.8432667 Z" id="Shape"></path>
            </g>
        </g>
    </g>
</svg>