<?xml version="1.0" encoding="UTF-8"?>
<svg width="110px" height="110px" viewBox="0 0 110 110" version="1.1" xmlns="http://www.w3.org/2000/svg" xmlns:xlink="http://www.w3.org/1999/xlink">
    <!-- Generator: sketchtool 52.2 (67145) - http://www.bohemiancoding.com/sketch -->
    <title>C80A0012-977D-4170-A1AA-E83489842823</title>
    <desc>Created with sketchtool.</desc>
    <g id="Page-1" stroke="none" stroke-width="1" fill="none" fill-rule="evenodd">
        <g id="email_suc" transform="translate(-905.000000, -422.000000)" fill="#00CE7D" fill-rule="nonzero">
            <g id="success" transform="translate(905.000000, 422.000000)">
                <path d="M55,0 C24.6738462,0 0,24.6717308 0,55 C0,85.3282692 24.6738462,110 55,110 C85.3261538,110 110,85.3282692 110,55 C110,24.6717308 85.3261538,0 55,0 Z M85.6625,36.6575 L51.8163462,74.7344231 C50.9828846,75.6715385 49.8215385,76.1538462 48.6517308,76.1538462 C47.7230769,76.1538462 46.7901923,75.8492308 46.0096154,75.2273077 L24.8557692,58.3042308 C23.0323077,56.8467308 22.7361538,54.1834615 24.1957692,52.3578846 C25.6532692,50.5323077 28.3186538,50.2361538 30.1421154,51.6957692 L48.1588462,66.1078846 L79.3375,31.0326923 C80.8859615,29.2853846 83.5640385,29.1288462 85.3092308,30.6815385 C87.0565385,32.2363462 87.2151923,34.9101923 85.6625,36.6575 Z" id="Shape"></path>
            </g>
        </g>
    </g>
</svg>