<?xml version="1.0" encoding="UTF-8"?>
<svg width="15px" height="15px" viewBox="0 0 15 15" version="1.1" xmlns="http://www.w3.org/2000/svg" xmlns:xlink="http://www.w3.org/1999/xlink">
    <!-- Generator: sketchtool 52.2 (67145) - http://www.bohemiancoding.com/sketch -->
    <title>9321F50A-58EC-48B0-BB16-3C9F992C2653</title>
    <desc>Created with sketchtool.</desc>
    <g id="Page-1" stroke="none" stroke-width="1" fill="none" fill-rule="evenodd">
        <g id="exchange_1" transform="translate(-1615.000000, -26.000000)" fill="#919191" fill-rule="nonzero">
            <g id="ac_ic" transform="translate(1615.000000, 26.000000)">
                <path d="M12.8033203,9.69667969 C11.9864355,8.87982422 11.0141309,8.27510742 9.95329102,7.90904297 C11.0894824,7.12649414 11.8359375,5.81683594 11.8359375,4.3359375 C11.8359375,1.94510742 9.89083008,0 7.5,0 C5.10916992,0 3.1640625,1.94510742 3.1640625,4.3359375 C3.1640625,5.81683594 3.91051758,7.12649414 5.04673828,7.90904297 C3.98589844,8.27510742 3.01359375,8.87982422 2.19670898,9.69667969 C0.780146484,11.1132715 0,12.9966797 0,15 L1.171875,15 C1.171875,11.5106543 4.0106543,8.671875 7.5,8.671875 C10.9893457,8.671875 13.828125,11.5106543 13.828125,15 L15,15 C15,12.9966797 14.2198535,11.1132715 12.8033203,9.69667969 Z M7.78846154,7.5 C6.0388328,7.5 4.61538462,6.0765812 4.61538462,4.32692308 C4.61538462,2.57726496 6.0388328,1.15384615 7.78846154,1.15384615 C9.53809028,1.15384615 10.9615385,2.57726496 10.9615385,4.32692308 C10.9615385,6.0765812 9.53809028,7.5 7.78846154,7.5 Z" id="Shape"></path>
            </g>
        </g>
    </g>
</svg>