<?xml version="1.0" encoding="UTF-8"?>
<svg width="21px" height="21px" viewBox="0 0 21 21" version="1.1" xmlns="http://www.w3.org/2000/svg" xmlns:xlink="http://www.w3.org/1999/xlink">
    <!-- Generator: sketchtool 52.2 (67145) - http://www.bohemiancoding.com/sketch -->
    <title>8E2828A7-64CA-406D-8092-88A93668FBC2</title>
    <desc>Created with sketchtool.</desc>
    <g id="Page-1" stroke="none" stroke-width="1" fill="none" fill-rule="evenodd">
        <g id="ui-kit" transform="translate(-816.000000, -236.000000)" fill="#313131">
            <g id="sidebar-copy" transform="translate(767.000000, 0.000000)">
                <g id="Admin-wallet" transform="translate(0.000000, 229.000000)">
                    <g id="admin_wallet" transform="translate(49.000000, 7.000000)">
                        <path d="M19.0628083,10.1616396 L18.3099322,10.1616396 C18.134838,9.76928185 17.9159396,9.39521716 17.6593071,9.04945341 L19.0923803,8.41682471 C19.3153392,8.31842765 19.4591387,8.09768026 19.4591387,7.85396399 C19.4591387,6.46889923 18.336305,5.34211138 16.9561825,5.34211138 L15.4698715,5.34211138 C14.5312783,5.34211138 13.6747156,5.8804036 13.2494694,6.695799 L12.1879535,6.695799 C12.2774488,6.30352326 12.3248624,5.89537439 12.3248624,5.47635631 C12.3248624,2.45668627 9.87055029,0 6.85383692,0 C3.83704152,0 1.38277041,2.45668627 1.38277041,5.47635631 C1.38277041,6.94833368 1.96613045,8.28635324 2.91341889,9.27143128 C2.63919086,9.67765241 2.41479638,10.1203366 2.24831544,10.5903374 C1.74522226,10.480702 1.33146032,10.0830532 1.21579729,9.56494081 C1.14180576,9.23328652 0.812740331,9.02422866 0.481337032,9.09850839 C0.149728658,9.17254203 -0.059121045,9.50136622 0.0149114988,9.83297949 C0.140746316,10.3968246 0.457425136,10.9087846 0.906583245,11.2744411 C1.21497698,11.5254992 1.57775696,11.7000627 1.96215197,11.7872214 C1.92999601,12.0354904 1.91326178,12.2885993 1.91326178,12.5455227 L1.91326178,13.1035846 C1.91326178,15.2517085 3.09651101,17.22814 4.95926004,18.2454975 L4.95926004,20.384762 C4.95926004,20.7245374 5.23471853,21 5.57448894,21 L8.07449207,21 C8.41426248,21 8.68972096,20.7245374 8.68972096,20.384762 L8.68972096,18.9533083 L12.1418113,18.9533083 L12.1418113,20.384762 C12.1418113,20.7245374 12.4172698,21 12.7570402,21 L15.2570433,21 C15.5968137,21 15.8722722,20.7245374 15.8722722,20.384762 L15.8722722,18.1877882 C17.0470723,17.514964 17.9549041,16.4504792 18.4348646,15.1853859 L19.0629313,15.1853859 C20.1310097,15.1853859 21,14.3136347 21,13.2420952 L21,12.1048073 C20.9998359,11.0333498 20.1308866,10.1616396 19.0628083,10.1616396 Z M2.61318719,5.47631529 C2.61318719,3.13508868 4.51555696,1.23047596 6.85383692,1.23047596 C9.19207586,1.23047596 11.0943636,3.13517071 11.0943636,5.47631529 C11.0943636,7.81745987 9.19203485,9.72219564 6.85379591,9.72219564 C4.51551595,9.72223665 2.61318719,7.8175419 2.61318719,5.47631529 Z M19.7694192,13.2420952 C19.7693781,13.6351502 19.4523712,13.9549099 19.0627673,13.9549099 L17.9921049,13.9549099 C17.718287,13.9549099 17.4774454,14.1358309 17.4012391,14.3988246 C17.0383361,15.6503007 16.1586818,16.6947287 14.9877782,17.264316 C14.7760574,17.3673068 14.6416914,17.5821069 14.6416914,17.817538 L14.6416914,19.769524 L13.3721461,19.769524 L13.3721461,18.3380703 C13.3721461,17.9982949 13.0966876,17.7228324 12.7569172,17.7228324 L8.07441003,17.7228324 C7.73463962,17.7228324 7.45918114,17.9982949 7.45918114,18.3380703 L7.45918114,19.769524 L6.1896358,19.769524 L6.1896358,17.8663469 C6.1896358,17.6259939 6.04965072,17.4075844 5.83124447,17.3072596 C4.19859104,16.5572435 3.14367856,14.9071752 3.14367856,13.1035846 L3.14367856,12.5455227 C3.14367856,11.6318943 3.40892424,10.7793796 3.8659983,10.0616429 C4.72555509,10.6247498 5.75208501,10.9527126 6.85383692,10.9527126 C8.99126515,10.9527126 10.8459752,9.7192425 11.745809,7.92627496 L13.6609755,7.92627496 C13.9333168,7.92627496 14.1732151,7.74724071 14.2507339,7.48621574 C14.4105294,6.94829267 14.9117769,6.57262836 15.4698305,6.57262836 L16.9561415,6.57262836 C17.5278122,6.57262836 18.0126946,6.95428098 18.1726951,7.47780749 L16.4026816,8.25915972 C16.2166363,8.3413145 16.0832137,8.51005377 16.0462179,8.71004713 C16.0091812,8.90999947 16.07337,9.11536591 16.2177438,9.25863433 C16.7050871,9.74241646 17.0845192,10.3390332 17.315025,10.9839667 C17.4025516,11.2287494 17.6344108,11.3921156 17.8943655,11.3921156 L19.0628083,11.3921156 C19.4524122,11.3921156 19.7694192,11.7118753 19.7694192,12.1049303 L19.7694192,13.2420952 Z" id="Shape" fill-rule="nonzero"></path>
                        <circle id="Oval" cx="14.5" cy="10.5" r="1"></circle>
                        <path d="M6.36809022,2.88212043 L7.18154927,2.88212043 L7.18154927,2.22371122 C7.29017398,2.07457041 7.40110022,2 7.51432797,2 C7.62755573,2 7.73848196,2.07457041 7.84710667,2.22371122 L7.84710667,2.94772559 C8.07912334,3.00605185 8.27817358,3.1032695 8.44425957,3.23937921 C8.73488775,3.47755292 8.88019967,3.79872173 8.88019967,4.2028953 C8.88019967,4.46272116 8.81586309,4.69247114 8.68718802,4.89215213 C8.55851295,5.09183311 8.37881424,5.23738153 8.14808652,5.32880174 C8.42318496,5.42022195 8.6339427,5.57298764 8.78036606,5.7871034 C8.92678942,6.00121916 9,6.26464976 9,6.57740312 C9,6.85647534 8.93233567,7.10065987 8.79700499,7.30996404 C8.66167431,7.51926821 8.46866459,7.68165694 8.21797005,7.7971351 C8.10338602,7.84991628 7.97976517,7.89063502 7.84710667,7.91929151 L7.84710667,8.77628878 C7.73848196,8.92542959 7.62755573,9 7.51432797,9 C7.40110022,9 7.29017398,8.92542959 7.18154927,8.77628878 L7.18154927,7.97035147 L6.36809022,7.97035147 L6.36809022,8.77628878 C6.25946551,8.92542959 6.14853927,9 6.03531152,9 C5.92208376,9 5.81115753,8.92542959 5.70253282,8.77628878 L5.70253282,7.97035147 L5.56572379,7.97035147 C5.38380386,7.97035147 5.2440382,7.91742478 5.14642263,7.81156979 C5.04880705,7.70571481 5,7.554152 5,7.35687681 L5,3.4955951 C5,3.2983199 5.04880705,3.14675709 5.14642263,3.04090211 C5.2440382,2.93504713 5.38380386,2.88212043 5.56572379,2.88212043 L5.70253282,2.88212043 L5.70253282,2.22371122 C5.81115753,2.07457041 5.92208376,2 6.03531152,2 C6.14853927,2 6.25946551,2.07457041 6.36809022,2.22371122 L6.36809022,2.88212043 Z M6.19134775,4.8813261 L7.06322795,4.8813261 C7.29395567,4.8813261 7.46256186,4.84283396 7.56905158,4.76584852 C7.6755413,4.68886308 7.72878536,4.56616937 7.72878536,4.39776372 C7.72878536,4.21973489 7.6755413,4.08982391 7.56905158,4.00802688 C7.46256186,3.92622984 7.29395567,3.88533194 7.06322795,3.88533194 L6.19134775,3.88533194 L6.19134775,4.8813261 Z M7.18302829,6.96713996 C7.42706722,6.96713996 7.60121967,6.92503918 7.70549085,6.84083636 C7.80976203,6.75663353 7.86189684,6.61830239 7.86189684,6.42583879 C7.86189684,6.23337519 7.80976203,6.09504405 7.70549085,6.01084122 C7.60121967,5.9266384 7.42706722,5.88453761 7.18302829,5.88453761 L6.19134775,5.88453761 L6.19134775,6.96713996 L7.18302829,6.96713996 Z" id="Combined-Shape" fill-rule="nonzero"></path>
                    </g>
                </g>
            </g>
        </g>
    </g>
</svg>