<?xml version="1.0" encoding="UTF-8"?>
<svg width="17px" height="24px" viewBox="0 0 17 24" version="1.1" xmlns="http://www.w3.org/2000/svg" xmlns:xlink="http://www.w3.org/1999/xlink">
    <!-- Generator: sketchtool 52.2 (67145) - http://www.bohemiancoding.com/sketch -->
    <title>8365718F-F965-4448-A57B-1F3AA58A3731</title>
    <desc>Created with sketchtool.</desc>
    <g id="Page-1" stroke="none" stroke-width="1" fill="none" fill-rule="evenodd">
        <g id="Access-rights" transform="translate(-51.000000, -741.000000)" fill="#FFFFFF" fill-rule="nonzero">
            <g id="lock" transform="translate(51.000000, 741.000000)">
                <path d="M8.5,12.6436586 C7.21969892,12.6436586 6.17803763,13.6852742 6.17803763,14.965621 C6.17803763,15.6006075 6.44194892,16.2145726 6.90268548,16.6515 L6.90268548,18.7479382 C6.90268548,19.6286935 7.61924462,20.3452527 8.5,20.3452527 C9.38075538,20.3452527 10.0973145,19.6286935 10.0973145,18.7479382 L10.0973145,16.6515 C10.5578683,16.2148468 10.8219624,15.6007446 10.8219624,14.965621 C10.8219624,13.6852742 9.78034677,12.6436586 8.5,12.6436586 Z M9.32166667,15.837328 C9.09998118,16.0462177 8.97284677,16.3381882 8.97284677,16.6384301 L8.97284677,18.7479382 C8.97284677,19.0086505 8.76080376,19.2206935 8.5000914,19.2206935 C8.23937903,19.2206935 8.02733602,19.0086505 8.02733602,18.7479382 L8.02733602,16.6384301 C8.02733602,16.3381882 7.90020161,16.046172 7.67865323,15.8374651 C7.43626613,15.6088333 7.30273387,15.2992231 7.30273387,14.965621 C7.30273387,14.3054086 7.83992473,13.7682177 8.5001371,13.7682177 C9.16034946,13.7682177 9.69754032,14.3054086 9.69754032,14.965621 C9.69740323,15.2992231 9.56387097,15.6088333 9.32166667,15.837328 Z" id="Shape"></path>
                <path d="M15.3081344,9.59110753 L4.50308065,9.59110753 L4.50308065,5.12156989 C4.50308065,2.91764785 6.29603226,1.12455914 8.5,1.12455914 C10.7039677,1.12455914 12.4969651,2.91764785 12.4969651,5.12156989 L12.4969651,7.14456989 C12.4969651,7.45509409 12.7487661,7.70684946 13.0592446,7.70684946 C13.3697231,7.70684946 13.6215242,7.45513978 13.6215242,7.14456989 L13.6215242,5.12156989 C13.6215242,2.29751344 11.3240108,0 8.5,0 C5.67598925,0 3.37847581,2.29751344 3.37847581,5.12156989 L3.37847581,9.59110753 L1.69181989,9.59110753 C0.761709677,9.59110753 0.00502688172,10.347836 0.00502688172,11.2779005 L0.00502688172,21.7110108 C0.00502688172,22.641121 0.761709677,23.3978038 1.69181989,23.3978038 L15.3081344,23.3978038 C16.2382446,23.3978038 16.9949274,22.641121 16.9949274,21.7110108 L16.9949274,11.2779462 C16.9949731,10.347836 16.2382446,9.59110753 15.3081344,9.59110753 Z M15.870414,21.7110565 C15.870414,22.021078 15.6182016,22.273336 15.3081344,22.273336 L1.69186559,22.273336 C1.38184409,22.273336 1.12958602,22.0211237 1.12958602,21.7110565 L1.12958602,11.2779462 C1.12958602,10.9679247 1.38184409,10.7156667 1.69186559,10.7156667 L15.3081801,10.7156667 C15.6182016,10.7156667 15.8704597,10.967879 15.8704597,11.2779462 L15.8704597,21.7110565 L15.870414,21.7110565 Z" id="Shape"></path>
            </g>
        </g>
    </g>
</svg>