<?xml version="1.0" encoding="UTF-8"?>
<svg width="17px" height="17px" viewBox="0 0 17 17" version="1.1" xmlns="http://www.w3.org/2000/svg" xmlns:xlink="http://www.w3.org/1999/xlink">
    <!-- Generator: sketchtool 52.2 (67145) - http://www.bohemiancoding.com/sketch -->
    <title>40CEF5E5-7AA8-4589-867E-11372336EF1A</title>
    <desc>Created with sketchtool.</desc>
    <g id="Page-1" stroke="none" stroke-width="1" fill="none" fill-rule="evenodd">
        <g id="ui-kit" transform="translate(-819.000000, -430.000000)" fill="#3A3A3A">
            <g id="sidebar-copy" transform="translate(767.000000, 0.000000)">
                <g id="comissions" transform="translate(0.000000, 418.000000)">
                    <g transform="translate(52.000000, 12.000000)">
                        <path d="M12.5720312,4.12542188 C12.3643125,3.91770313 12.0285625,3.91770313 11.8208437,4.12542188 L4.4890625,11.4566719 C4.28134375,11.6643906 4.28134375,12.0001406 4.4890625,12.2078594 C4.59265625,12.3114531 4.72865625,12.3635156 4.86465625,12.3635156 C5.00065625,12.3635156 5.13665625,12.3119844 5.24025,12.2078594 L12.5720312,4.87660938 C12.77975,4.66889063 12.77975,4.33314063 12.5720312,4.12542188 Z" id="Path"></path>
                        <path d="M5.8724375,3.41142188 C4.71271875,3.41142188 3.76921875,4.35492188 3.76921875,5.51517188 C3.76921875,6.67489063 4.71271875,7.61839063 5.8724375,7.61839063 C7.03215625,7.61839063 7.9761875,6.67435938 7.9761875,5.51517188 C7.9761875,4.35492188 7.0326875,3.41142188 5.8724375,3.41142188 Z M5.8724375,6.55589063 C5.2986875,6.55589063 4.83171875,6.08892188 4.83171875,5.51517188 C4.83171875,4.94089063 5.2986875,4.47392188 5.8724375,4.47392188 C6.44671875,4.47392188 6.9136875,4.94089063 6.9136875,5.51517188 C6.9136875,6.08892188 6.44671875,6.55589063 5.8724375,6.55589063 Z" id="Shape" fill-rule="nonzero"></path>
                        <path d="M16.160625,9.77260938 C16.55375,9.33060938 17,8.82910938 17,8.16823438 C17,7.50735938 16.55375,7.00585938 16.1600938,6.56332813 C15.9375,6.31310938 15.7074688,6.05492187 15.64,5.84773438 C15.5666875,5.62142188 15.6006875,5.26442188 15.633625,4.91910938 C15.688875,4.34057813 15.7515625,3.68554688 15.3765,3.17076563 C14.9987813,2.65173438 14.3527813,2.50882813 13.7832813,2.38292188 C13.447,2.30854688 13.0995625,2.23204688 12.9115,2.09498438 C12.72875,1.96164063 12.5507812,1.65829688 12.3791875,1.36504688 C12.0822187,0.857703125 11.7454062,0.282890625 11.1265,0.081546875 C10.988375,0.036390625 10.8401562,0.014078125 10.6860937,0.014078125 C10.2409062,0.014078125 9.81590625,0.198421875 9.40471875,0.376921875 C9.08171875,0.517171875 8.74703125,0.662203125 8.5,0.662203125 C8.25296875,0.662203125 7.91828125,0.517171875 7.59528125,0.376921875 C7.18409375,0.198421875 6.75909375,0.014078125 6.31390625,0.014078125 C6.15984375,0.014078125 6.011625,0.036390625 5.87296875,0.081546875 C5.2540625,0.282890625 4.91778125,0.858234375 4.61975,1.36557813 C4.44815625,1.65935937 4.27071875,1.96217188 4.0885,2.09498438 C3.90096875,2.23098438 3.55353125,2.30801563 3.21778125,2.38239063 C2.64721875,2.50882813 2.00121875,2.65173438 1.6235,3.17076563 C1.2484375,3.68554688 1.311125,4.34110938 1.366375,4.91964063 C1.3993125,5.26495313 1.4333125,5.62195313 1.36,5.84826563 C1.29253125,6.05492187 1.0625,6.31364063 0.83990625,6.56332813 C0.44625,7.00585938 0,7.50735938 0,8.16823438 C0,8.82857813 0.44571875,9.33007813 0.83884375,9.77154688 C1.0614375,10.0217656 1.29146875,10.2804844 1.3589375,10.4892656 C1.43278125,10.7155781 1.3993125,11.0725781 1.366375,11.4178906 C1.311125,11.9958906 1.24896875,12.6514531 1.6235,13.1657031 C2.00121875,13.6852656 2.64775,13.8281719 3.2183125,13.9540781 C3.5540625,14.0279219 3.90096875,14.1044219 4.08796875,14.2404219 C4.27071875,14.3732344 4.44815625,14.6765781 4.62028125,14.9703594 C4.91671875,15.4777031 5.2540625,16.0530469 5.87296875,16.2543906 C6.01109375,16.2990156 6.1593125,16.3218594 6.31284375,16.3218594 C6.75803125,16.3218594 7.1835625,16.1375156 7.59421875,15.9595469 C7.91775,15.8192969 8.2524375,15.6742656 8.5,15.6742656 C8.74703125,15.6742656 9.08171875,15.8187656 9.40525,15.9595469 C9.81590625,16.1375156 10.2414375,16.3218594 10.6860938,16.3218594 C10.8401562,16.3218594 10.988375,16.2990156 11.1270312,16.2543906 C11.7459375,16.0535781 12.0822188,15.4787656 12.3791875,14.9714219 C12.5513125,14.6776406 12.72875,14.3742969 12.9125625,14.2414844 C13.1000938,14.1044219 13.4475313,14.0279219 13.7832812,13.9535469 C14.3527812,13.8281719 14.9987813,13.6857969 15.3770312,13.1662344 C15.7520938,12.6509219 15.6894063,11.9953594 15.6341563,11.4168281 C15.6012188,11.0715156 15.5672188,10.7145156 15.6405313,10.4887344 C15.7074688,10.2810156 15.9375,10.0222969 16.160625,9.77260938 Z M15.3669375,9.06551563 C15.0710313,9.39701563 14.7655625,9.74073438 14.6295625,10.1604219 C14.48825,10.5960469 14.532875,11.0640781 14.5759063,11.5172344 C14.6152188,11.9273594 14.6555937,12.3512969 14.5174688,12.5404219 C14.3766875,12.7343281 13.9585938,12.8267656 13.5537813,12.9165469 C13.11125,13.0142969 12.6533125,13.1152344 12.2878125,13.3819219 C11.9244375,13.6454219 11.689625,14.0465156 11.46225,14.4343281 C11.2513438,14.7945156 11.0324687,15.1669219 10.7987188,15.2434219 C10.5957813,15.3077031 10.1989375,15.1456719 9.82759375,14.9847031 C9.40471875,14.8008906 8.9675,14.6117656 8.5,14.6117656 C8.03196875,14.6117656 7.59475,14.8008906 7.171875,14.9841719 C6.80053125,15.1446094 6.4015625,15.3071719 6.20075,15.2428906 C5.967,15.1674531 5.74759375,14.7939844 5.5366875,14.4327344 C5.30984375,14.0454531 5.07503125,13.6443594 4.71271875,13.3808594 C4.34615625,13.1141719 3.88875,13.0137656 3.44675,12.9160156 C3.04246875,12.8267656 2.62384375,12.7343281 2.48253125,12.5398906 C2.3449375,12.3502344 2.3853125,11.9273594 2.4235625,11.5177656 C2.46659375,11.0640781 2.51121875,10.5949844 2.369375,10.1604219 C2.23390625,9.74020313 1.9284375,9.39701563 1.63253125,9.06498438 C1.3525625,8.75048438 1.0625,8.42429688 1.0625,8.16823438 C1.0625,7.91217187 1.35309375,7.58545312 1.63359375,7.27095313 C1.92896875,6.93892188 2.2344375,6.59573437 2.3704375,6.17657812 C2.51175,5.74042188 2.467125,5.27239062 2.42409375,4.81923437 C2.38478125,4.40910937 2.34440625,3.98570312 2.48253125,3.79604688 C2.6233125,3.60214062 3.04246875,3.50917187 3.44728125,3.41992188 C3.88928125,3.32217187 4.3466875,3.22123437 4.71325,2.95454687 C5.07503125,2.69051562 5.3093125,2.29048437 5.5366875,1.90320312 C5.74759375,1.54248437 5.967,1.16901562 6.20128125,1.09251562 C6.40528125,1.02451562 6.8010625,1.19026562 7.17240625,1.35176562 C7.59528125,1.53504687 8.0325,1.72470312 8.5,1.72470312 C8.9675,1.72470312 9.40471875,1.53504687 9.82759375,1.35176562 C10.1989375,1.19079687 10.5979062,1.02504687 10.7981875,1.09251562 C11.0324687,1.16848437 11.2513438,1.54142187 11.4627813,1.90214062 C11.689625,2.28942187 11.9244375,2.69051562 12.28675,2.95401562 C12.6538438,3.22123437 13.1117813,3.32217187 13.5543125,3.42045312 C13.9580625,3.50970312 14.3766875,3.60214062 14.5174688,3.79604687 C14.6550625,3.98570312 14.6146875,4.40910937 14.5759063,4.81870312 C14.532875,5.27185937 14.48825,5.74042187 14.6295625,6.17604687 C14.7655625,6.59520312 15.0710312,6.93839062 15.3664063,7.27042187 C15.6469062,7.58545312 15.9375,7.91217187 15.9375,8.16823438 C15.9375,8.42429688 15.6474375,8.75048438 15.3669375,9.06551563 Z" id="Shape" fill-rule="nonzero"></path>
                        <path d="M11.183875,8.72232813 C10.0241562,8.72232813 9.0811875,9.66582813 9.0811875,10.8260781 C9.0811875,11.9863281 10.0241562,12.9298281 11.183875,12.9298281 C12.3430625,12.9298281 13.2870937,11.9863281 13.2870937,10.8260781 C13.2870937,9.66582813 12.3435937,8.72232813 11.183875,8.72232813 Z M11.183875,11.8673281 C10.610125,11.8673281 10.1436875,11.4003594 10.1436875,10.8260781 C10.1436875,10.2517969 10.610125,9.78482812 11.183875,9.78482812 C11.757625,9.78482812 12.2245937,10.2517969 12.2245937,10.8260781 C12.2245937,11.4003594 11.757625,11.8673281 11.183875,11.8673281 Z" id="Shape" fill-rule="nonzero"></path>
                    </g>
                </g>
            </g>
        </g>
    </g>
</svg>