<?xml version="1.0" encoding="UTF-8"?>
<svg width="17px" height="13px" viewBox="0 0 17 13" version="1.1" xmlns="http://www.w3.org/2000/svg" xmlns:xlink="http://www.w3.org/1999/xlink">
    <!-- Generator: sketchtool 52.2 (67145) - http://www.bohemiancoding.com/sketch -->
    <title>5E2C3B06-542C-4E4C-A0DB-6CCD8E6B964E</title>
    <desc>Created with sketchtool.</desc>
    <g id="Page-1" stroke="none" stroke-width="1" fill="none" fill-rule="evenodd">
        <g id="ui-kit" transform="translate(-818.000000, -120.000000)" fill="#313131" fill-rule="nonzero">
            <g id="sidebar-copy" transform="translate(767.000000, 0.000000)">
                <g id="Dashboard" transform="translate(30.000000, 120.000000)">
                    <g id="dashboard" transform="translate(21.000000, 0.000000)">
                        <path d="M15.8234375,0 C15.0165115,0 1.1253998,0 0.643229167,0 C0.287945557,0 0,0.282501517 0,0.631067961 L0,12.368932 C0,12.7174985 0.287945557,13 0.643229167,13 L15.8234375,13 C16.1787211,13 16.4666667,12.7174985 16.4666667,12.368932 C16.4666667,12.1545908 16.4666667,1.0200622 16.4666667,0.631067961 C16.4666667,0.282501517 16.1787211,0 15.8234375,0 Z M6.34648589,1.26213592 L10.1200551,1.26213592 L10.1200551,4.3862921 L6.34648589,4.3862921 L6.34648589,1.26213592 Z M1.28645833,1.26213592 L5.06002756,1.26213592 L5.06002756,4.3862921 L1.28645833,4.3862921 L1.28645833,1.26213592 Z M15.1802083,11.7378641 L1.28645833,11.7378641 L1.28645833,5.64842803 L15.1802083,5.64842803 L15.1802083,11.7378641 Z M15.1802083,4.3862921 L11.4066391,4.3862921 L11.4066391,1.26213592 L15.1802083,1.26213592 L15.1802083,4.3862921 Z M8.25617122,8.99928072 L10.3592056,7.14604294 C10.5801762,6.95131902 10.9385487,6.95131902 11.1596299,7.14604294 C11.3806004,7.34086425 11.3806004,7.65657219 11.1596299,7.85139351 L8.65632808,10.0572579 C8.4353575,10.2519818 8.07687443,10.2518844 7.85590382,10.0572579 L6.73203783,9.06688373 L4.96615223,10.623019 C4.74507109,10.8177429 4.38680908,10.8177429 4.16572793,10.623019 C3.94475736,10.4281977 3.94475736,10.1123923 4.16572793,9.91766842 L6.33188096,8.00880914 C6.55285157,7.81408522 6.91144518,7.81418265 7.13230523,8.00880914 L8.25617122,8.99928072 Z" id="Shape"></path>
                    </g>
                </g>
            </g>
        </g>
    </g>
</svg>