<?xml version="1.0" encoding="UTF-8"?>
<svg width="19px" height="16px" viewBox="0 0 19 16" version="1.1" xmlns="http://www.w3.org/2000/svg" xmlns:xlink="http://www.w3.org/1999/xlink">
    <!-- Generator: sketchtool 52.2 (67145) - http://www.bohemiancoding.com/sketch -->
    <title>02F191BC-4DE0-4056-9C56-378F543F4C84</title>
    <desc>Created with sketchtool.</desc>
    <g id="Page-1" stroke="none" stroke-width="1" fill="none" fill-rule="evenodd">
        <g id="ui-kit" transform="translate(-819.000000, -494.000000)" fill="#3A3A3A">
            <g id="sidebar-copy" transform="translate(767.000000, 0.000000)">
                <g id="NEWS" transform="translate(0.000000, 481.000000)">
                    <g id="news" transform="translate(52.000000, 13.000000)">
                        <path d="M7.01538462,12.7179487 L2.87179487,12.7179487 C2.64521026,12.7179487 2.46153846,12.9016205 2.46153846,13.1282051 C2.46153846,13.3547897 2.64521026,13.5384615 2.87179487,13.5384615 L7.01538462,13.5384615 C7.24196923,13.5384615 7.42564103,13.3547897 7.42564103,13.1282051 C7.42564103,12.9016205 7.24196923,12.7179487 7.01538462,12.7179487 Z" id="Path"></path>
                        <path d="M13.2102564,12.7179487 L9.06666667,12.7179487 C8.84008205,12.7179487 8.65641026,12.9016205 8.65641026,13.1282051 C8.65641026,13.3547897 8.84008205,13.5384615 9.06666667,13.5384615 L13.2102564,13.5384615 C13.4368,13.5384615 13.6205128,13.3547897 13.6205128,13.1282051 C13.6205128,12.9016205 13.4368,12.7179487 13.2102564,12.7179487 Z" id="Path"></path>
                        <path d="M13.2102564,2.46153846 L2.87179487,2.46153846 C2.64521026,2.46153846 2.46153846,2.64521026 2.46153846,2.87179487 C2.46153846,3.09837949 2.64521026,3.28205128 2.87179487,3.28205128 L13.2102564,3.28205128 C13.4368,3.28205128 13.6205128,3.09837949 13.6205128,2.87179487 C13.6205128,2.64521026 13.4368,2.46153846 13.2102564,2.46153846 Z" id="Path"></path>
                        <path d="M13.2102564,4.51282051 L9.06666667,4.51282051 C8.84008205,4.51282051 8.65641026,4.69649231 8.65641026,4.92307692 C8.65641026,5.14966154 8.84008205,5.33333333 9.06666667,5.33333333 L13.2102564,5.33333333 C13.4368,5.33333333 13.6205128,5.14966154 13.6205128,4.92307692 C13.6205128,4.69649231 13.4368,4.51282051 13.2102564,4.51282051 Z" id="Path"></path>
                        <path d="M13.2102564,6.56410256 L9.06666667,6.56410256 C8.84008205,6.56410256 8.65641026,6.74777436 8.65641026,6.97435897 C8.65641026,7.20094359 8.84008205,7.38461538 9.06666667,7.38461538 L13.2102564,7.38461538 C13.4368,7.38461538 13.6205128,7.20094359 13.6205128,6.97435897 C13.6205128,6.74777436 13.4368,6.56410256 13.2102564,6.56410256 Z" id="Path"></path>
                        <path d="M13.2102564,8.61538462 L9.06666667,8.61538462 C8.84008205,8.61538462 8.65641026,8.79905641 8.65641026,9.02564103 C8.65641026,9.25222564 8.84008205,9.43589744 9.06666667,9.43589744 L13.2102564,9.43589744 C13.4368,9.43589744 13.6205128,9.25222564 13.6205128,9.02564103 C13.6205128,8.79905641 13.4368,8.61538462 13.2102564,8.61538462 Z" id="Path"></path>
                        <path d="M13.2102564,10.6666667 L9.06666667,10.6666667 C8.84008205,10.6666667 8.65641026,10.8503385 8.65641026,11.0769231 C8.65641026,11.3035077 8.84008205,11.4871795 9.06666667,11.4871795 L13.2102564,11.4871795 C13.4368,11.4871795 13.6205128,11.3035077 13.6205128,11.0769231 C13.6205128,10.8503385 13.4368,10.6666667 13.2102564,10.6666667 Z" id="Path"></path>
                        <path d="M7.01538462,10.6666667 L2.87179487,10.6666667 C2.64521026,10.6666667 2.46153846,10.8503385 2.46153846,11.0769231 C2.46153846,11.3035077 2.64521026,11.4871795 2.87179487,11.4871795 L7.01538462,11.4871795 C7.24196923,11.4871795 7.42564103,11.3035077 7.42564103,11.0769231 C7.42564103,10.8503385 7.24196923,10.6666667 7.01538462,10.6666667 Z" id="Path"></path>
                        <path d="M7.01538462,4.51282051 L2.87179487,4.51282051 C2.64521026,4.51282051 2.46153846,4.69649231 2.46153846,4.92307692 L2.46153846,9.06666667 C2.46153846,9.29325128 2.64521026,9.47692308 2.87179487,9.47692308 L7.01538462,9.47692308 C7.24196923,9.47692308 7.42564103,9.29325128 7.42564103,9.06666667 L7.42564103,4.92307692 C7.42564103,4.69649231 7.24196923,4.51282051 7.01538462,4.51282051 Z M6.60512821,8.65641026 L3.28205128,8.65641026 L3.28205128,5.33333333 L6.60512821,5.33333333 L6.60512821,8.65641026 Z" id="Shape" fill-rule="nonzero"></path>
                        <path d="M17.3128205,2.05128205 L16.0820513,2.05128205 L16.0820513,0.820512821 C16.0820513,0.368082051 15.7139692,0 15.2615385,0 L0.820512821,0 C0.368082051,0 0,0.368082051 0,0.820512821 L0,13.9487179 C0,15.0797949 0.920205128,16 2.05128205,16 L16.0820513,16 C17.2131282,16 18.1333333,15.0797949 18.1333333,13.9487179 L18.1333333,2.87179487 C18.1333333,2.4193641 17.7652513,2.05128205 17.3128205,2.05128205 Z M17.3128205,13.9487179 C17.3128205,14.6273641 16.7606974,15.1794872 16.0820513,15.1794872 L2.05128205,15.1794872 C1.3726359,15.1794872 0.820512821,14.6273641 0.820512821,13.9487179 L0.820512821,0.820512821 L15.2615385,0.820512821 L15.2615385,13.3333333 C15.2615385,13.8988718 15.721641,14.3589744 16.2871795,14.3589744 C16.5137231,14.3589744 16.6974359,14.1753026 16.6974359,13.9487179 C16.6974359,13.7221333 16.5137231,13.5384615 16.2871795,13.5384615 C16.1740718,13.5384615 16.0820513,13.446441 16.0820513,13.3333333 L16.0820513,2.87179487 L17.3128205,2.87179487 L17.3128205,13.9487179 Z" id="Shape" fill-rule="nonzero"></path>
                    </g>
                </g>
            </g>
        </g>
    </g>
</svg>