<?xml version="1.0" encoding="UTF-8"?>
<svg width="22px" height="20px" viewBox="0 0 22 20" version="1.1" xmlns="http://www.w3.org/2000/svg" xmlns:xlink="http://www.w3.org/1999/xlink">
    <!-- Generator: sketchtool 52.2 (67145) - http://www.bohemiancoding.com/sketch -->
    <title>7BDD1896-6E03-4A6D-B5AC-8CAB836B68E2</title>
    <desc>Created with sketchtool.</desc>
    <g id="Page-1" stroke="none" stroke-width="1" fill="none" fill-rule="evenodd">
        <g id="pairs" transform="translate(-48.000000, -681.000000)" fill-rule="nonzero">
            <g id="sidebar">
                <g id="Settings-Copy" transform="translate(0.000000, 670.000000)">
                    <g id="PAIRS" transform="translate(48.000000, 11.000000)">
                        <g id="Group-2" transform="translate(1.000000, 1.000000)">
                            <circle id="Oval" stroke="#3A3A3A" cx="6.15384615" cy="6.15384615" r="6.15384615"></circle>
                            <path d="M5.19844358,3.36057692 L6.09398384,3.36057692 L6.09398384,2.69619539 C6.21356921,2.53975744 6.33568833,2.46153846 6.46034122,2.46153846 C6.5849941,2.46153846 6.70711322,2.53975744 6.82669859,2.69619539 L6.82669859,3.42744031 C7.08212665,3.4868852 7.30126184,3.58596737 7.48410655,3.7246875 C7.80406026,3.9674291 7.96403472,4.29475756 7.96403472,4.70668269 C7.96403472,4.97149171 7.89320634,5.20564802 7.75154744,5.40915865 C7.60988855,5.61266929 7.41205754,5.76100915 7.15804849,5.85418269 C7.46090544,5.94735624 7.69292945,6.10305179 7.85412751,6.32127404 C8.01532556,6.53949628 8.09592338,6.80797918 8.09592338,7.12673077 C8.09592338,7.41115527 8.02143145,7.66002297 7.87244538,7.87334135 C7.7234593,8.08665972 7.51097414,8.25216287 7.23498354,8.36985577 C7.10883753,8.42364923 6.97274285,8.46514891 6.82669859,8.49435499 L6.82669859,9.40476614 C6.70711322,9.5612041 6.5849941,9.63942308 6.46034122,9.63942308 C6.33568833,9.63942308 6.21356921,9.5612041 6.09398384,9.40476614 L6.09398384,8.54639423 L5.19844358,8.54639423 L5.19844358,9.40476614 C5.07885821,9.5612041 4.95673908,9.63942308 4.8320862,9.63942308 C4.70743332,9.63942308 4.5853142,9.5612041 4.46572882,9.40476614 L4.46572882,8.54639423 L4.31511523,8.54639423 C4.11483887,8.54639423 3.96097031,8.49245246 3.85350494,8.38456731 C3.74603957,8.27668215 3.69230769,8.12221254 3.69230769,7.92115385 L3.69230769,3.98581731 C3.69230769,3.78475861 3.74603957,3.630289 3.85350494,3.52240385 C3.96097031,3.41451869 4.11483887,3.36057692 4.31511523,3.36057692 L4.46572882,3.36057692 L4.46572882,2.69619539 C4.5853142,2.53975744 4.70743332,2.46153846 4.8320862,2.46153846 C4.95673908,2.46153846 5.07885821,2.53975744 5.19844358,2.69619539 L5.19844358,3.36057692 Z M5.00386711,5.398125 L5.96372344,5.398125 C6.21773249,5.398125 6.4033517,5.35889462 6.52058665,5.28043269 C6.6378216,5.20197076 6.69643819,5.07692394 6.69643819,4.90528846 C6.69643819,4.72384525 6.6378216,4.59144272 6.52058665,4.50807692 C6.4033517,4.42471112 6.21773249,4.38302885 5.96372344,4.38302885 L5.00386711,4.38302885 L5.00386711,5.398125 Z M6.09561209,7.52394231 C6.36427551,7.52394231 6.55600062,7.48103408 6.67079318,7.39521635 C6.78558573,7.30939861 6.84298114,7.16841444 6.84298114,6.97225962 C6.84298114,6.77610479 6.78558573,6.63512062 6.67079318,6.54930288 C6.55600062,6.46348515 6.36427551,6.42057692 6.09561209,6.42057692 L5.00386711,6.42057692 L5.00386711,7.52394231 L6.09561209,7.52394231 Z" id="Combined-Shape-Copy" fill="#3A3A3A"></path>
                        </g>
                        <g id="Group-2-Copy" transform="translate(8.692308, 7.153846)">
                            <circle id="Oval" stroke="#3A3A3A" cx="6.15384615" cy="6.15384615" r="6.15384615"></circle>
                            <path d="M5.19844358,3.36057692 L6.09398384,3.36057692 L6.09398384,2.69619539 C6.21356921,2.53975744 6.33568833,2.46153846 6.46034122,2.46153846 C6.5849941,2.46153846 6.70711322,2.53975744 6.82669859,2.69619539 L6.82669859,3.42744031 C7.08212665,3.4868852 7.30126184,3.58596737 7.48410655,3.7246875 C7.80406026,3.9674291 7.96403472,4.29475756 7.96403472,4.70668269 C7.96403472,4.97149171 7.89320634,5.20564802 7.75154744,5.40915865 C7.60988855,5.61266929 7.41205754,5.76100915 7.15804849,5.85418269 C7.46090544,5.94735624 7.69292945,6.10305179 7.85412751,6.32127404 C8.01532556,6.53949628 8.09592338,6.80797918 8.09592338,7.12673077 C8.09592338,7.41115527 8.02143145,7.66002297 7.87244538,7.87334135 C7.7234593,8.08665972 7.51097414,8.25216287 7.23498354,8.36985577 C7.10883753,8.42364923 6.97274285,8.46514891 6.82669859,8.49435499 L6.82669859,9.40476614 C6.70711322,9.5612041 6.5849941,9.63942308 6.46034122,9.63942308 C6.33568833,9.63942308 6.21356921,9.5612041 6.09398384,9.40476614 L6.09398384,8.54639423 L5.19844358,8.54639423 L5.19844358,9.40476614 C5.07885821,9.5612041 4.95673908,9.63942308 4.8320862,9.63942308 C4.70743332,9.63942308 4.5853142,9.5612041 4.46572882,9.40476614 L4.46572882,8.54639423 L4.31511523,8.54639423 C4.11483887,8.54639423 3.96097031,8.49245246 3.85350494,8.38456731 C3.74603957,8.27668215 3.69230769,8.12221254 3.69230769,7.92115385 L3.69230769,3.98581731 C3.69230769,3.78475861 3.74603957,3.630289 3.85350494,3.52240385 C3.96097031,3.41451869 4.11483887,3.36057692 4.31511523,3.36057692 L4.46572882,3.36057692 L4.46572882,2.69619539 C4.5853142,2.53975744 4.70743332,2.46153846 4.8320862,2.46153846 C4.95673908,2.46153846 5.07885821,2.53975744 5.19844358,2.69619539 L5.19844358,3.36057692 Z M5.00386711,5.398125 L5.96372344,5.398125 C6.21773249,5.398125 6.4033517,5.35889462 6.52058665,5.28043269 C6.6378216,5.20197076 6.69643819,5.07692394 6.69643819,4.90528846 C6.69643819,4.72384525 6.6378216,4.59144272 6.52058665,4.50807692 C6.4033517,4.42471112 6.21773249,4.38302885 5.96372344,4.38302885 L5.00386711,4.38302885 L5.00386711,5.398125 Z M6.09561209,7.52394231 C6.36427551,7.52394231 6.55600062,7.48103408 6.67079318,7.39521635 C6.78558573,7.30939861 6.84298114,7.16841444 6.84298114,6.97225962 C6.84298114,6.77610479 6.78558573,6.63512062 6.67079318,6.54930288 C6.55600062,6.46348515 6.36427551,6.42057692 6.09561209,6.42057692 L5.00386711,6.42057692 L5.00386711,7.52394231 L6.09561209,7.52394231 Z" id="Combined-Shape-Copy" fill="#3A3A3A"></path>
                        </g>
                    </g>
                </g>
            </g>
        </g>
    </g>
</svg>