<?xml version="1.0" encoding="UTF-8"?>
<svg width="19px" height="16px" viewBox="0 0 19 16" version="1.1" xmlns="http://www.w3.org/2000/svg" xmlns:xlink="http://www.w3.org/1999/xlink">
    <!-- Generator: sketchtool 52.2 (67145) - http://www.bohemiancoding.com/sketch -->
    <title>57AFF53F-2B39-48E2-A44C-CE8A5F49C2BA</title>
    <desc>Created with sketchtool.</desc>
    <g id="Page-1" stroke="none" stroke-width="1" fill="none" fill-rule="evenodd">
        <g id="ui-kit" transform="translate(-817.000000, -622.000000)" fill="#3A3A3A" fill-rule="nonzero">
            <g id="sidebar-copy" transform="translate(767.000000, 0.000000)">
                <g id="all_time_report" transform="translate(0.000000, 607.000000)">
                    <g id="data" transform="translate(50.000000, 15.000000)">
                        <path d="M18.8196484,0.88246312 C18.736709,0.750131089 18.6019648,0.658693589 18.4482949,0.630564683 L16.3860898,0.252754136 C16.0837969,0.197349839 15.7936758,0.397554917 15.7382344,0.699959214 C15.6828672,1.00236351 15.8830723,1.29241039 16.1854766,1.34781468 L16.8307344,1.46600804 L10.3960801,5.46706664 C10.1060332,5.23268382 9.73742578,5.09192796 9.33638477,5.09192796 C8.93218945,5.09192796 8.56079883,5.23483617 8.26975,5.47255882 L6.71653711,4.51799437 C6.74191992,4.40169359 6.7556875,4.28108812 6.7556875,4.15729125 C6.7556875,3.2256975 5.99791406,2.46777562 5.06646875,2.46777562 C4.13502344,2.46777562 3.37725,3.2256975 3.37725,4.15729125 C3.37725,4.18972484 3.37840039,4.22189867 3.38021875,4.25388695 L0.375101562,5.49994554 C0.091140625,5.61769359 -0.043640625,5.94336546 0.0741074219,6.2273264 C0.191892578,6.51132445 0.51775,6.64599437 0.801525391,6.52832054 L3.80738477,5.28196507 C4.11695117,5.62826976 4.56660547,5.84676976 5.06650586,5.84676976 C5.47073828,5.84676976 5.8420918,5.70389867 6.13317773,5.4661389 L7.68639062,6.42070335 C7.6609707,6.53700414 7.64724023,6.6576096 7.64724023,6.78140648 C7.64720312,7.71307445 8.40497656,8.47099632 9.33638477,8.47099632 C10.2678301,8.47099632 11.0256035,7.71307445 11.0256035,6.7814807 C11.0256035,6.65460375 11.0110937,6.53114085 10.9844492,6.41220531 L17.4315352,2.40339085 L17.2524453,3.05083812 C17.1704707,3.34711937 17.3442539,3.65379125 17.6405352,3.73572875 C17.6901875,3.74945921 17.7401367,3.75602757 17.7892695,3.75602757 C18.0332637,3.75602757 18.2572187,3.59426781 18.3254258,3.3476389 L18.8844785,1.32647679 C18.9261152,1.17592406 18.9025879,1.01483226 18.8196484,0.88246312 Z M5.06646875,4.73352562 C4.74888672,4.73352562 4.49053125,4.47502171 4.49053125,4.15729125 C4.49053125,3.83952367 4.74888672,3.58105687 5.06646875,3.58105687 C5.38405078,3.58105687 5.64240625,3.83956078 5.64240625,4.15729125 C5.64240625,4.47502171 5.38405078,4.73352562 5.06646875,4.73352562 Z M9.33638477,7.35767796 C9.01883984,7.35767796 8.76048437,7.09917406 8.76048437,6.78144359 C8.76048437,6.46371312 9.01883984,6.20520921 9.33638477,6.20520921 C9.6539668,6.20520921 9.91232227,6.46371312 9.91232227,6.78144359 C9.91232227,7.09917406 9.6539668,7.35767796 9.33638477,7.35767796 Z" id="Shape"></path>
                        <path d="M3.16175586,6.95518968 C3.00663867,6.85202562 2.81021875,6.83328539 2.63836523,6.90516625 L0.341628906,7.86700414 C0.134707031,7.95365453 0,8.15608617 0,8.38044945 L0,15.0904182 C0,15.3978323 0.249226563,15.6470588 0.556640625,15.6470588 L2.85341406,15.6470588 C3.16082813,15.6470588 3.41005469,15.3978323 3.41005469,15.0904182 L3.41005469,7.41864867 C3.41005469,7.2323225 3.31687305,7.05842796 3.16175586,6.95518968 Z M2.29677344,14.5337776 L1.11328125,14.5337776 L1.11328125,8.75080101 L2.29677344,8.25524242 L2.29677344,14.5337776 Z" id="Shape"></path>
                        <path d="M7.02461914,8.3556975 L4.7278457,6.94439085 C4.55606641,6.83885179 4.34060938,6.83443578 4.16471094,6.93281273 C3.98877539,7.03118968 3.87974805,7.21703343 3.87974805,7.41864867 L3.87974805,15.0904182 C3.87974805,15.3978323 4.12897461,15.6470588 4.43638867,15.6470588 L6.73316211,15.6470588 C7.04057617,15.6470588 7.28980273,15.3978323 7.28980273,15.0904182 L7.28980273,8.82995531 C7.28980273,8.63650414 7.18938477,8.45696898 7.02461914,8.3556975 Z M6.17655859,14.5337776 L6.17652148,14.5337776 L4.99306641,14.5337776 L4.99306641,8.41403343 L6.17655859,9.14126585 L6.17655859,14.5337776 Z" id="Shape"></path>
                        <path d="M14.8182187,6.35297875 C14.6423203,6.2546389 14.4268633,6.25901781 14.2551211,6.36455687 L11.9583477,7.7758264 C11.7935449,7.87709789 11.693127,8.05663304 11.693127,8.25008421 L11.693127,15.0904182 C11.693127,15.3978323 11.9423535,15.6470588 12.2497676,15.6470588 L14.546541,15.6470588 C14.8539551,15.6470588 15.1031816,15.3978323 15.1031816,15.0904182 L15.1031816,6.83881468 C15.1031445,6.63719945 14.9941543,6.4513557 14.8182187,6.35297875 Z M13.9898633,14.5337776 L12.8063711,14.5337776 L12.8063711,8.56139476 L13.9898633,7.83416234 L13.9898633,14.5337776 Z" id="Shape"></path>
                        <path d="M18.7150371,4.09869554 C18.5391758,4.00031859 18.3236816,4.0047346 18.1519395,4.11027367 L15.855166,5.52158031 C15.6903633,5.62285179 15.5899453,5.80242406 15.5899453,5.99583812 L15.5899453,15.0904182 C15.5899453,15.3978323 15.8391719,15.6470588 16.1465859,15.6470588 L18.4433594,15.6470588 C18.7507734,15.6470588 19,15.3978323 19,15.0904182 L19,4.58453148 C19,4.38291625 18.8910098,4.1971096 18.7150371,4.09869554 Z M17.8867187,14.5337776 L16.7032266,14.5337776 L16.7032266,6.30711156 L17.8867187,5.57991625 L17.8867187,14.5337776 Z" id="Shape"></path>
                        <path d="M10.6292012,9.1723264 L8.33242773,9.1723264 C8.02501367,9.1723264 7.77578711,9.42155296 7.77578711,9.72896703 L7.77578711,15.0904182 C7.77578711,15.3978323 8.02501367,15.6470588 8.33242773,15.6470588 L10.6292012,15.6470588 C10.9366152,15.6470588 11.1858418,15.3978323 11.1858418,15.0904182 L11.1858418,9.72896703 C11.1858418,9.42155296 10.9366152,9.1723264 10.6292012,9.1723264 Z M10.0725605,14.5337776 L8.88906836,14.5337776 L8.88906836,10.2856077 L10.0725605,10.2856077 L10.0725605,14.5337776 Z" id="Shape"></path>
                    </g>
                </g>
            </g>
        </g>
    </g>
</svg>