<?xml version="1.0" encoding="UTF-8"?>
<svg width="18px" height="18px" viewBox="0 0 18 18" version="1.1" xmlns="http://www.w3.org/2000/svg" xmlns:xlink="http://www.w3.org/1999/xlink">
    <!-- Generator: sketchtool 52.2 (67145) - http://www.bohemiancoding.com/sketch -->
    <title>78AE2CFE-847D-405A-AA90-2080757DE74E</title>
    <desc>Created with sketchtool.</desc>
    <g id="Page-1" stroke="none" stroke-width="1" fill="none" fill-rule="evenodd">
        <g id="ui-kit" transform="translate(-817.000000, -556.000000)" fill="#3A3A3A" fill-rule="nonzero">
            <g id="sidebar-copy" transform="translate(767.000000, 0.000000)">
                <g id="Settings" transform="translate(0.000000, 544.000000)">
                    <g id="cogwheel-copy" transform="translate(50.000000, 12.000000)">
                        <path d="M11.536418,5.73535547 C11.536418,4.8099375 10.7835117,4.05710156 9.85809375,4.05710156 L9.8139375,4.05710156 C10.127918,3.74069531 10.3007813,3.32117578 10.3007813,2.87514844 C10.3007813,2.42683594 10.1261953,2.00538281 9.80922656,1.68848438 C9.15489844,1.03412109 8.09015625,1.03415625 7.4356875,1.68841406 L7.41378516,1.71031641 L7.41378516,1.6785 C7.41378516,0.753117188 6.66087891,0.00028125 5.73546094,0.00028125 C4.81672266,0.00028125 4.06803516,0.742324219 4.05720703,1.65842578 C3.40066406,1.03412109 2.35866797,1.04421094 1.7145,1.68837891 C1.39749609,2.00534766 1.22291016,2.42680078 1.22291016,2.87507813 C1.22291016,3.32114063 1.39573828,3.74058984 1.70975391,4.05703125 L1.67825391,4.05703125 C0.75290625,4.05706641 0,4.80990234 0,5.73532031 C0,6.66073828 0.75290625,7.41357422 1.67835938,7.41357422 L1.71010547,7.41357422 C1.39594922,7.73001563 1.22301562,8.14964063 1.22298047,8.59577344 C1.22298047,9.04408594 1.39756641,9.46553906 1.7145,9.78240234 C2.03146875,10.0994414 2.45295703,10.2740273 2.90130469,10.2740273 C3.33520313,10.2740273 3.74403516,10.1104453 4.0573125,9.81246094 C4.06824609,10.7285625 4.81686328,11.4703242 5.73556641,11.4703242 C6.66101953,11.4703242 7.41389063,10.7174883 7.41389063,9.79207031 L7.41389063,9.76053516 L7.43579297,9.7824375 C7.75276172,10.0993711 8.17425,10.273957 8.62252734,10.273957 C9.070875,10.273957 9.49236328,10.0994063 9.80926172,9.7824375 C10.1262656,9.46546875 10.3008516,9.04401563 10.3008516,8.59573828 C10.3008516,8.14953516 10.127918,7.73001563 9.81372656,7.41353906 L9.85812891,7.41353906 C10.783582,7.41357422 11.536418,6.66073828 11.536418,5.73535547 Z M9.31510547,6.35825391 C9.08616797,6.35825391 8.88338672,6.505875 8.81296875,6.72373828 C8.76069141,6.88566797 8.69519531,7.04390625 8.61841406,7.19416406 C8.51421094,7.39792969 8.55326953,7.64567578 8.71516406,7.8075 L9.06307031,8.15537109 C9.18073828,8.27300391 9.24556641,8.42944922 9.24556641,8.59584375 C9.24556641,8.76220313 9.18077344,8.91864844 9.06307031,9.03628125 C8.9454375,9.15394922 8.78895703,9.21874219 8.6225625,9.21874219 C8.45616797,9.21874219 8.29965234,9.15394922 8.18198438,9.03624609 L7.83580078,8.69013281 C7.67366016,8.52799219 7.42538672,8.48921484 7.22148047,8.59398047 C7.06334766,8.67526172 6.89695313,8.74374609 6.72700781,8.7975 C6.50759766,8.86693359 6.3585,9.07052344 6.3585,9.30062109 L6.3585,9.79210547 C6.3585,10.1356172 6.07900781,10.4150391 5.73549609,10.4150391 C5.39194922,10.4150391 5.11245703,10.1356172 5.11245703,9.79210547 L5.11245703,9.28346484 C5.11245703,9.05628516 4.96708594,8.85466406 4.75154297,8.78283984 C4.59717188,8.73144141 4.446,8.66787891 4.30221094,8.59401563 C4.22581641,8.55471094 4.14316406,8.53565625 4.06117969,8.53565625 C3.92438672,8.53565625 3.78928125,8.58884766 3.68796094,8.69020313 L3.3418125,9.03621094 C3.22410938,9.15391406 3.06766406,9.21870703 2.90123438,9.21870703 C2.73480469,9.21870703 2.57832422,9.15391406 2.46065625,9.03621094 C2.34298828,8.91857812 2.27819531,8.76216797 2.27819531,8.59577344 C2.27819531,8.42937891 2.34298828,8.27293359 2.46065625,8.15530078 L2.8085625,7.80742969 C2.97042188,7.64557031 3.00944531,7.39789453 2.9053125,7.19412891 C2.82853125,7.04387109 2.76307031,6.88559766 2.71072266,6.72359766 C2.64033984,6.50580469 2.43752344,6.35818359 2.20862109,6.35818359 L1.67835938,6.35818359 C1.3348125,6.35818359 1.05532031,6.07876172 1.05532031,5.73525 C1.05532031,5.39173828 1.3348125,5.11231641 1.67835938,5.11231641 L2.21241797,5.11231641 C2.44072266,5.11231641 2.64311719,4.96546875 2.71402734,4.74848438 C2.76658594,4.58760938 2.83204688,4.43049609 2.90865234,4.28146875 C3.01348828,4.07752734 2.97460547,3.82921875 2.81242969,3.66707813 L2.46079688,3.31555078 C2.34312891,3.19791797 2.27830078,3.04147266 2.27830078,2.87507813 C2.27830078,2.70868359 2.34309375,2.55227344 2.46076172,2.43460547 C2.70365625,2.19167578 3.09895313,2.19178125 3.34184766,2.43457031 L3.69530859,2.78803125 C3.85716797,2.94989063 4.10484375,2.98894922 4.30857422,2.88478125 C4.45057031,2.81221875 4.59963281,2.74974609 4.75157813,2.69915625 C4.96712109,2.62740234 5.11252734,2.42571094 5.11252734,2.19853125 L5.11252734,1.67846484 C5.11252734,1.33498828 5.39201953,1.05556641 5.73556641,1.05556641 C6.07911328,1.05556641 6.35857031,1.33498828 6.35857031,1.67846484 L6.35857031,2.181375 C6.35857031,2.41147266 6.50766797,2.61502734 6.72704297,2.68446094 C6.89466797,2.73751172 7.05891797,2.80494141 7.21522266,2.88481641 C7.41898828,2.98901953 7.66666406,2.94992578 7.82845313,2.78810156 L8.18191406,2.43464063 C8.42484375,2.19178125 8.82014063,2.19174609 9.06303516,2.43467578 C9.18066797,2.55230859 9.24549609,2.70871875 9.24549609,2.87514844 C9.24549609,3.04150781 9.18070313,3.19798828 9.06303516,3.31562109 L8.71136719,3.66721875 C8.54922656,3.82935938 8.51034375,4.07763281 8.61514453,4.28160938 C8.69175,4.43063672 8.75721094,4.58775 8.80976953,4.748625 C8.88064453,4.96564453 9.08307422,5.11245703 9.31137891,5.11245703 L9.85809375,5.11245703 C10.2016406,5.11245703 10.4810977,5.39187891 10.4810977,5.73539063 C10.4810977,6.07890234 10.2016055,6.35832422 9.85809375,6.35832422 L9.31510547,6.35832422 L9.31510547,6.35825391 Z" id="Shape"></path>
                        <path d="M5.76189844,3.78175781 C4.68147656,3.78175781 3.8025,4.66062891 3.8025,5.74098047 C3.8025,6.82136719 4.68147656,7.70027344 5.76189844,7.70027344 C6.84228516,7.70027344 7.72129688,6.82136719 7.72129688,5.74098047 C7.72129687,4.66062891 6.84232031,3.78175781 5.76189844,3.78175781 Z M5.76189844,6.64491797 C5.26338281,6.64491797 4.85785547,6.23942578 4.85785547,5.74098047 C4.85785547,5.24257031 5.26341797,4.83711328 5.76189844,4.83711328 C6.26037891,4.83711328 6.66594141,5.24260547 6.66594141,5.74098047 C6.66597656,6.23942578 6.26041406,6.64491797 5.76189844,6.64491797 Z" id="Shape"></path>
                        <path d="M18,13.2665273 C18,12.5226914 17.4396797,11.9073164 16.7189414,11.8201992 C16.9027734,11.5714687 17.0020898,11.2717266 17.0020898,10.9566562 C17.0020898,10.5674766 16.8505312,10.2016406 16.5753984,9.92650781 C16.0529766,9.40401562 15.2292305,9.36200391 14.658293,9.80064844 C14.5650937,9.08655469 13.9527773,8.53340625 13.2136523,8.53340625 C12.4845117,8.53340625 11.8787695,9.07171875 11.7730547,9.77175 C11.5273477,9.59505469 11.2333359,9.49974609 10.9246641,9.49978125 C10.5354844,9.49978125 10.1696484,9.651375 9.89451562,9.92647266 C9.6193125,10.2016055 9.46775391,10.5674766 9.46775391,10.9566562 C9.46775391,11.2721836 9.56742187,11.572418 9.75178125,11.8213594 C9.03561328,11.9126953 8.48010937,12.5259609 8.48010937,13.2665273 C8.48010937,14.0071992 9.03561328,14.6204648 9.75195703,14.7116602 C9.56745703,14.9606719 9.46775391,15.2609766 9.46775391,15.5766094 C9.46775391,15.9657891 9.6193125,16.3316602 9.89444531,16.606793 C10.1696133,16.8819609 10.5354844,17.0335195 10.9246992,17.0335195 C11.2333008,17.0335195 11.5272773,16.9382109 11.7730547,16.7614805 C11.8789102,17.4614062 12.484582,17.9996484 13.2136172,17.9996484 C13.9526016,17.9996484 14.5648125,17.4466758 14.6582227,16.7327578 C14.9114531,16.9278047 15.2201953,17.0334844 15.5451094,17.0334844 C15.9342891,17.0334844 16.3001602,16.8819258 16.5753281,16.6067578 C16.8505312,16.3315898 17.0020195,15.9657539 17.0020195,15.5765742 C17.0020195,15.2614687 16.9026328,14.9615859 16.7186602,14.7127852 C17.4395742,14.6257734 18,14.0103633 18,13.2665273 Z M16.5430547,13.6680469 L16.1045859,13.6680469 C15.8756836,13.6680469 15.6729023,13.815668 15.6024844,14.0334961 C15.5618789,14.1591094 15.5110781,14.2819453 15.4514883,14.3984883 C15.3473203,14.6022539 15.3864141,14.8499648 15.5482383,15.0117891 L15.8292422,15.2927227 C15.9050742,15.3685195 15.9468398,15.4693477 15.9468398,15.5766094 C15.9468398,15.6838711 15.9050742,15.7846992 15.8292422,15.8605312 C15.753375,15.9363633 15.6525469,15.9781641 15.54525,15.9781641 C15.4379531,15.9781641 15.3370898,15.9363633 15.2612578,15.8605664 L14.9817305,15.5810391 C14.8195898,15.4188984 14.5713164,15.3800508 14.367375,15.4848516 C14.2446445,15.5479219 14.1155859,15.6010781 13.9837852,15.6427383 C13.7644102,15.7121719 13.6153125,15.9157617 13.6153125,16.1458594 L13.6153125,16.5427734 C13.6153125,16.7641875 13.4351367,16.9443281 13.2136875,16.9443281 C12.9922383,16.9443281 12.8120625,16.7641875 12.8120625,16.5427734 L12.8120625,16.1320078 C12.8120625,15.9048281 12.6666914,15.703207 12.4511484,15.6313828 C12.3315117,15.5915156 12.2142656,15.5422266 12.1026445,15.4848516 C12.02625,15.445582 11.9435977,15.4264922 11.8615781,15.4264922 C11.72475,15.4264922 11.5896797,15.4796836 11.4883242,15.5810742 L11.208832,15.8605312 C11.1329648,15.9363984 11.0320664,15.9781992 10.9248047,15.9781992 C10.8175078,15.9781992 10.7166445,15.9363984 10.6407773,15.8605312 C10.5649453,15.7847344 10.5231797,15.6839062 10.5231797,15.5766445 C10.5231797,15.4693828 10.5649805,15.3685547 10.6408125,15.2927578 L10.9217813,15.0118242 C11.0836406,14.8499648 11.1226641,14.6022891 11.0185313,14.3985234 C10.9589414,14.2819453 10.9081406,14.1591445 10.8675703,14.0335664 C10.7972227,13.8157031 10.5943711,13.668082 10.3654336,13.668082 L9.937125,13.668082 C9.71567578,13.668082 9.5355,13.4879766 9.5355,13.2665625 C9.5355,13.0451484 9.71567578,12.8650078 9.937125,12.8650078 L10.3684219,12.8650078 C10.5967266,12.8650078 10.7991562,12.7181602 10.8700313,12.5011406 C10.9107422,12.3764062 10.961543,12.2545547 11.0209922,12.1389258 C11.1258281,11.9350195 11.0869453,11.6867109 10.9248047,11.5245352 L10.6408125,11.2405781 C10.5649805,11.1647812 10.5231797,11.063918 10.5231797,10.9566562 C10.5231797,10.8494297 10.5649453,10.7486016 10.6408125,10.6727695 C10.7166445,10.5969375 10.8175078,10.5551367 10.9248047,10.5551367 C11.0320664,10.5551016 11.1329648,10.5969023 11.2087969,10.6727695 L11.4942656,10.9582031 C11.656125,11.1199922 11.9037656,11.1590156 12.1075664,11.0548828 C12.2176406,10.9985977 12.3332344,10.9501523 12.4511484,10.910918 C12.6666914,10.8391641 12.8120977,10.6374727 12.8120977,10.410293 L12.8120977,9.99031641 C12.8120977,9.76890234 12.9922734,9.58879687 13.2137227,9.58879687 C13.4351719,9.58879687 13.6153477,9.76890234 13.6153477,9.99031641 L13.6153477,10.3964414 C13.6153477,10.6265039 13.7644453,10.8300586 13.98375,10.8995273 C14.1138633,10.9407305 14.2412695,10.9930078 14.3624883,11.0549883 C14.5661836,11.1591562 14.8139297,11.1200977 14.9757539,10.9582734 L15.2611875,10.6728398 C15.4178086,10.5162539 15.6725859,10.5162187 15.829207,10.672875 C15.9050391,10.7486719 15.9468047,10.8495 15.9468047,10.9567266 C15.9468047,11.0640234 15.9050039,11.1648516 15.829207,11.2406484 L15.5452148,11.5246055 C15.3830742,11.6867461 15.3441914,11.9350547 15.4490273,12.1389961 C15.5084414,12.254625 15.5592422,12.3765117 15.6000234,12.5012461 C15.6708984,12.7182656 15.8733281,12.8650781 16.1016328,12.8650781 L16.5431602,12.8650781 C16.7646094,12.8650781 16.9447852,13.0452187 16.9447852,13.2666328 C16.9447852,13.4880469 16.7645391,13.6680469 16.5430547,13.6680469 Z" id="Shape"></path>
                        <path d="M13.2349922,11.5873242 C12.3064805,11.5873242 11.5510781,12.3426914 11.5510781,13.2710977 C11.5510781,14.1996094 12.3064805,14.9549414 13.2349922,14.9549414 C14.1635039,14.9549414 14.9189063,14.1995742 14.9189063,13.2710977 C14.9189063,12.3426914 14.1635039,11.5873242 13.2349922,11.5873242 Z M13.2349922,13.8996211 C12.8883867,13.8996211 12.6063984,13.6176328 12.6063984,13.2710977 C12.6063984,12.9245625 12.8883867,12.6426445 13.2349922,12.6426445 C13.5815977,12.6426445 13.8635859,12.9245977 13.8635859,13.2710977 C13.8635859,13.6176328 13.5815977,13.8996211 13.2349922,13.8996211 Z" id="Shape"></path>
                    </g>
                </g>
            </g>
        </g>
    </g>
</svg>