<?xml version="1.0" encoding="UTF-8"?>
<svg width="15px" height="17px" viewBox="0 0 15 17" version="1.1" xmlns="http://www.w3.org/2000/svg" xmlns:xlink="http://www.w3.org/1999/xlink">
    <!-- Generator: sketchtool 52.2 (67145) - http://www.bohemiancoding.com/sketch -->
    <title>43BECF54-719B-4B4E-A4EA-08C546285514</title>
    <desc>Created with sketchtool.</desc>
    <g id="Page-1" stroke="none" stroke-width="1" fill="none" fill-rule="evenodd">
        <g id="ui-kit" transform="translate(-820.000000, -367.000000)" fill="#313131">
            <g id="sidebar-copy" transform="translate(767.000000, 0.000000)">
                <g id="trade-history" transform="translate(0.000000, 356.000000)">
                    <g id="trade_hisr" transform="translate(53.000000, 11.000000)">
                        <path d="M9.12345508,4.97054102 L2.52901562,4.97054102 C2.25396094,4.97054102 2.03096875,5.1935332 2.03096875,5.46858789 C2.03096875,5.74364258 2.25396094,5.96663477 2.52901562,5.96663477 L9.12345508,5.96663477 C9.39850977,5.96663477 9.62150195,5.74364258 9.62150195,5.46858789 C9.62150195,5.1935332 9.39850977,4.97054102 9.12345508,4.97054102 Z" id="Path"></path>
                        <path d="M9.12345508,6.86736914 L2.52901562,6.86736914 C2.25396094,6.86736914 2.03096875,7.09036133 2.03096875,7.36541602 C2.03096875,7.6404707 2.25396094,7.86346289 2.52901562,7.86346289 L9.12345508,7.86346289 C9.39850977,7.86346289 9.62150195,7.6404707 9.62150195,7.36541602 C9.62150195,7.09036133 9.39850977,6.86736914 9.12345508,6.86736914 Z" id="Path"></path>
                        <path d="M11.6409824,8.97802539 L11.6409824,2.54843945 C11.6409824,1.72457031 10.9707109,1.05429883 10.1468418,1.05429883 L9.12916602,1.05429883 C8.99479297,0.451828125 8.45630469,0 7.81392383,0 L3.83781641,0 C3.19546875,0 2.65694727,0.451828125 2.52257422,1.05429883 L1.50489844,1.05429883 C0.681029297,1.05429883 0.0107578125,1.72457031 0.0107578125,2.54843945 L0.0107578125,14.6867051 C0.0107578125,15.5105742 0.681029297,16.1808457 1.50489844,16.1808457 L8.44421875,16.1808457 C9.11595117,16.6946973 9.95203906,17 10.8574551,17 C13.066791,17 14.864209,15.1831914 14.864209,12.9500156 C14.864209,10.9878105 13.4764512,9.34731055 11.6409824,8.97802539 Z M3.4860957,1.34784766 C3.4860957,1.153875 3.64387695,0.99609375 3.83781641,0.99609375 L7.81392383,0.99609375 C8.00786328,0.99609375 8.16564453,1.153875 8.16564453,1.34784766 L8.16564453,2.2493125 C8.16564453,2.44325195 8.00786328,2.6010332 7.81392383,2.6010332 L3.83781641,2.6010332 C3.64387695,2.6010332 3.4860957,2.44325195 3.4860957,2.2493125 L3.4860957,1.34784766 Z M2.52901563,11.6571523 L7.06008008,11.6571523 C6.92437891,12.0633262 6.85073438,12.4981211 6.85073438,12.9500156 C6.85073438,13.7754121 7.09650391,14.5437988 7.51765234,15.184752 L1.50493164,15.184752 C1.23030859,15.184752 1.00688477,14.9613281 1.00688477,14.6867051 L1.00688477,2.54843945 C1.00688477,2.27381641 1.23030859,2.05039258 1.50493164,2.05039258 L2.49000195,2.05039258 L2.49000195,2.2493125 C2.49000195,2.99249805 3.09463086,3.59712695 3.83781641,3.59712695 L7.81392383,3.59712695 C8.55710937,3.59712695 9.16173828,2.99249805 9.16173828,2.2493125 L9.16173828,2.05039258 L10.1468086,2.05039258 C10.4214316,2.05039258 10.6448555,2.27381641 10.6448555,2.54843945 L10.6448555,8.90574219 C10.2803184,8.92509961 9.92859766,8.9940625 9.59603516,9.10582422 C9.53039258,8.90746875 9.34379102,8.76419727 9.12342188,8.76419727 L2.52901563,8.76419727 C2.25396094,8.76419727 2.03096875,8.98718945 2.03096875,9.26224414 C2.03096875,9.53729883 2.25396094,9.76029102 2.52901563,9.76029102 L8.39122656,9.76029102 C8.06892383,10.015457 7.78623242,10.3194648 7.55387695,10.6610586 L2.52901563,10.6610586 C2.25396094,10.6610586 2.03096875,10.8840508 2.03096875,11.1591055 C2.03096875,11.4341602 2.25396094,11.6571523 2.52901563,11.6571523 Z M10.8574883,16.0039062 C9.19739844,16.0039062 7.84682813,14.6339453 7.84682813,12.9500156 C7.84682813,11.2661191 9.19739844,9.896125 10.8574883,9.896125 C12.5175781,9.896125 13.8681484,11.2660859 13.8681484,12.9500156 C13.8681484,14.6339453 12.5176113,16.0039062 10.8574883,16.0039062 Z" id="Shape" fill-rule="nonzero"></path>
                        <path d="M12.3198867,14.0621875 L11.3555352,12.7832695 L11.3555352,11.9272266 C11.3555352,11.6521719 11.132543,11.4291797 10.8574883,11.4291797 C10.5824336,11.4291797 10.3594414,11.6521719 10.3594414,11.9272266 L10.3594414,12.9499824 C10.3594414,13.0581914 10.3947031,13.1634453 10.4598145,13.2498398 L11.5245391,14.6618691 C11.6224219,14.7917266 11.7716035,14.8600918 11.9225781,14.8600918 C12.027002,14.8600918 12.1322559,14.8273867 12.2220703,14.7596855 C12.4416758,14.5941016 12.4854707,14.281793 12.3198867,14.0621875 Z" id="Path"></path>
                    </g>
                </g>
            </g>
        </g>
    </g>
</svg>