<?xml version="1.0" encoding="UTF-8"?>
<svg width="20px" height="17px" viewBox="0 0 20 17" version="1.1" xmlns="http://www.w3.org/2000/svg" xmlns:xlink="http://www.w3.org/1999/xlink">
    <!-- Generator: sketchtool 52.2 (67145) - http://www.bohemiancoding.com/sketch -->
    <title>40F00D39-1091-4645-B443-DC5BDDDB37F6</title>
    <desc>Created with sketchtool.</desc>
    <g id="Page-1" stroke="none" stroke-width="1" fill="none" fill-rule="evenodd">
        <g id="ui-kit" transform="translate(-816.000000, -179.000000)" fill="#313131" fill-rule="nonzero">
            <g id="sidebar-copy" transform="translate(767.000000, 0.000000)">
                <g id="Users" transform="translate(0.000000, 166.000000)">
                    <g id="users" transform="translate(49.000000, 13.000000)">
                        <path d="M6.32377049,7.75562842 C8.45021858,7.75562842 10.1802186,6.02562842 10.1802186,3.89918033 C10.1802186,1.77273224 8.45021858,0.0427868852 6.32377049,0.0427868852 C4.1973224,0.0427868852 2.46737705,1.77278689 2.46737705,3.89918033 C2.46737705,6.02562842 4.19737705,7.75562842 6.32377049,7.75562842 Z M6.32377049,1.68213115 C7.54628415,1.68213115 8.54087432,2.67672131 8.54087432,3.89918033 C8.54087432,5.12169399 7.54628415,6.11628415 6.32377049,6.11628415 C5.10125683,6.11628415 4.10672131,5.12169399 4.10672131,3.89918033 C4.10672131,2.67666667 5.10131148,1.68213115 6.32377049,1.68213115 Z" id="Shape"></path>
                        <path d="M14.7779235,7.83836066 C16.5598361,7.83836066 18.0095082,6.38868852 18.0095082,4.60677596 C18.0095082,2.82486339 16.5598361,1.37519126 14.7779235,1.37519126 C12.9960109,1.37519126 11.5463388,2.82486339 11.5463388,4.60677596 C11.5463388,6.38868852 12.9960109,7.83836066 14.7779235,7.83836066 Z M14.7779235,3.01453552 C15.6559016,3.01453552 16.3701639,3.72879781 16.3701639,4.60677596 C16.3701639,5.48469945 15.6559016,6.19901639 14.7779235,6.19901639 C13.9,6.19901639 13.1856831,5.4847541 13.1856831,4.60677596 C13.1856831,3.72879781 13.8999454,3.01453552 14.7779235,3.01453552 Z" id="Shape"></path>
                        <path d="M19.9691803,14.3957377 C19.9691803,11.5332787 17.6403825,9.20448087 14.7779235,9.20448087 C13.1813115,9.20448087 11.6860109,9.94978142 10.7130055,11.1708197 C9.57486339,10.0720219 8.02699454,9.39497268 6.32382514,9.39497268 C2.8368306,9.39497268 0,12.2318033 0,15.7187432 L0,16.5384153 L12.647541,16.5384153 L12.647541,15.7187432 C12.647541,15.5493443 12.6406557,15.3815301 12.6274863,15.2154098 L19.9691257,15.2154098 L19.9691257,14.3957377 L19.9691803,14.3957377 Z M1.7110929,14.899071 C2.09978142,12.7054645 4.02027322,11.0343169 6.32377049,11.0343169 C8.62726776,11.0343169 10.5477049,12.7054645 10.9364481,14.899071 L1.7110929,14.899071 Z M12.2736066,13.5760656 C12.1387432,13.2026776 11.9695082,12.8456284 11.7700546,12.5084699 C12.4145902,11.4853005 13.5527322,10.8438251 14.7779235,10.8438251 C16.4544809,10.8438251 17.863388,12.0113115 18.2343716,13.5760656 L12.2736066,13.5760656 Z" id="Shape"></path>
                    </g>
                </g>
            </g>
        </g>
    </g>
</svg>