<?xml version="1.0" encoding="UTF-8"?>
<svg width="18px" height="21px" viewBox="0 0 18 21" version="1.1" xmlns="http://www.w3.org/2000/svg" xmlns:xlink="http://www.w3.org/1999/xlink">
    <!-- Generator: sketchtool 52.2 (67145) - http://www.bohemiancoding.com/sketch -->
    <title>345FE45A-76FC-41B2-9983-9F308EF397F0</title>
    <desc>Created with sketchtool.</desc>
    <g id="Page-1" stroke="none" stroke-width="1" fill="none" fill-rule="evenodd">
        <g id="ui-kit" transform="translate(-818.000000, -302.000000)" fill="#ffffff">
            <g id="sidebar-copy" transform="translate(767.000000, 0.000000)">
                <g id="withdraw-list" transform="translate(0.000000, 293.000000)">
                    <g id="withdrawal" transform="translate(51.000000, 9.000000)">
                        <path d="M5.40001133,10.2545769 L6.39992441,10.2545769 C6.39992441,11.216966 7.11768461,12 8.00000755,12 C8.88217181,12 9.59993201,11.216966 9.59993201,10.2545769 L9.59993201,8.94542308 C9.59993201,8.70478251 9.77941169,8.50898072 9.99999245,8.50898072 C10.2205732,8.50898072 10.4000529,8.70478251 10.4000529,8.94542308 L10.4000529,11.345423 C10.4000529,11.7070764 10.6685584,12 11.0000643,12 C11.3314114,12 11.5999169,11.7070764 11.5999169,11.345423 L11.5999169,10.2545769 L12.5999887,10.2545769 C12.9313358,10.2545769 13.2,9.9614802 13.2,9.6 C13.2,9.2385198 12.9313358,8.94542308 12.5999887,8.94542308 L11.5999169,8.94542308 C11.5999169,7.98303398 10.8821567,7.2 9.99999245,7.2 C9.11782819,7.2 8.40006804,7.98303398 8.40006804,8.94542308 L8.40006804,10.2545769 C8.40006804,10.4952175 8.22058831,10.6910193 8.00000755,10.6910193 C7.77942684,10.6910193 7.59994711,10.4952175 7.59994711,10.2545769 L7.59994711,7.85457696 C7.59994711,7.49292361 7.33128296,7.2 6.99993578,7.2 C6.66858861,7.2 6.39992441,7.49292361 6.39992441,7.85457696 L6.39992441,8.94542308 L5.40001133,8.94542308 C5.06866415,8.94542308 4.8,9.2385198 4.8,9.6 C4.8,9.9614802 5.06866415,10.2545769 5.40001133,10.2545769 Z" id="Path"></path>
                        <path d="M12.6521707,13.2 C12.3496403,13.2 12.1043415,13.4803464 12.1043415,13.8261014 L12.1043415,15.3829924 C11.5372419,15.5871667 11.0886623,16.0996723 10.9100129,16.7477973 L7.08998705,16.7477973 C6.91133764,16.0996723 6.46275808,15.5871667 5.89565845,15.3829924 L5.89565845,13.8261014 C5.89565845,13.4803464 5.65035963,13.2 5.34782923,13.2 C5.04529883,13.2 4.8,13.4803464 4.8,13.8261014 L4.8,15.9130507 C4.8,16.2588057 5.04529883,16.5391521 5.34782923,16.5391521 C5.75062353,16.5391521 6.07836482,16.9137199 6.07836482,17.3738987 C6.07836482,17.7196536 6.32351873,18 6.62604913,18 L11.3738059,18 C11.6764812,18 11.9216352,17.7196536 11.9216352,17.3738987 C11.9216352,16.9137199 12.2493764,16.5391521 12.6521707,16.5391521 C12.9547011,16.5391521 13.2,16.2588057 13.2,15.9130507 L13.2,13.8261014 C13.2,13.4803464 12.9547011,13.2 12.6521707,13.2 Z" id="Path"></path>
                        <path d="M15.4149187,1.13242749e-15 L2.58508135,1.13242749e-15 C1.15959449,1.13242749e-15 0,1.1878418 0,2.648053 C0,3.35527956 0.268931093,4.02017214 0.757261394,4.52039795 C1.17721936,4.95058594 1.71614516,5.21392822 2.2979176,5.2794525 L2.2979176,19.8115265 C2.2979176,20.1365021 2.55514944,20.4 2.87239699,20.4 L15.127603,20.4 C15.4448506,20.4 15.7020824,20.1365021 15.7020824,19.8115265 L15.7020824,5.2794525 C16.2838549,5.21392822 16.8227806,4.95058594 17.2427386,4.52039795 C17.7310689,4.02017214 18,3.35527956 18,2.648053 C18,1.1878418 16.8402536,0 15.4149187,0 Z M14.5531236,19.223053 L3.44687642,19.223053 L3.44687642,3.33457946 L4.59568327,3.33457946 L4.59568327,6.276947 C4.59568327,6.60192259 4.85291511,6.86542054 5.17016266,6.86542054 C5.48741021,6.86542054 5.74464205,6.60192259 5.74464205,6.276947 L5.74464205,3.33457946 L12.2553579,3.33457946 L12.2553579,6.276947 C12.2553579,6.60192259 12.5125898,6.86542054 12.8298373,6.86542054 C13.1470849,6.86542054 13.4043168,6.60192259 13.4043168,6.276947 L13.4043168,3.33457946 L14.5531236,3.33457946 L14.5531236,19.223053 Z M16.4303235,3.68819274 C16.2280934,3.89534912 15.9761794,4.03324583 15.7020824,4.0898987 L15.7020824,2.74610596 C15.7020824,2.42113037 15.4448506,2.15763246 15.127603,2.15763246 L2.87239699,2.15763246 C2.55514944,2.15763246 2.2979176,2.42113037 2.2979176,2.74610596 L2.2979176,4.0898987 C2.02382058,4.03324583 1.7719066,3.89534912 1.56967647,3.68819274 C1.29831432,3.41022035 1.14895878,3.04088743 1.14895878,2.648053 C1.14895878,1.83685911 1.79317794,1.176947 2.58508135,1.176947 L15.4149187,1.176947 C16.2068221,1.176947 16.8510412,1.83685911 16.8510412,2.648053 C16.8510412,3.04088743 16.7016857,3.41022035 16.4303235,3.68819274 Z" id="Shape" fill-rule="nonzero"></path>
                    </g>
                </g>
            </g>
        </g>
    </g>
</svg>